<svg version="1.1" xmlns="http://www.w3.org/2000/svg" viewBox="-71.06944870287539 -110.66548784639191 131.37466831984727 213.73584842268303" fill="none" stroke="black" stroke-width="0.6%" vector-effect="non-scaling-stroke">
    <path d="M -39.2465 -16.006 A 32.5 23.08029 360 0 1 -39.91317 -18.90634" />
    <path d="M -16.9402 -1.88307 A 32.5 23.08029 360 0 1 -37.64127 -15.22955 C -37.72 -15.37 -37.81 -15.52 -37.89145 -15.6597 C -37.98 -15.8 -38.06 -15.95 -38.14497 -16.08896 C -38.23 -16.23 -38.32 -16.37 -38.40184 -16.5172 C -38.49 -16.66 -38.57 -16.8 -38.6621 -16.94432 C -38.75 -17.09 -38.84 -17.23 -38.92577 -17.37022 C -39.01 -17.51 -39.1 -17.65 -39.19286 -17.79478 C -39.28 -17.94 -39.37 -18.08 -39.4634 -18.2179 C -39.55 -18.36 -39.65 -18.5 -39.7374 -18.6395 C -39.83 -18.78 -39.92 -18.92 -40.01488 -19.05946 C -40.11 -19.2 -40.2 -19.34 -40.29584 -19.47771 C -40.39 -19.62 -40.48 -19.76 -40.5803 -19.89414 C -40.68 -20.03 -40.77 -20.17 -40.86828 -20.30867 C -40.96 -20.45 -41.06 -20.58 -41.15976 -20.72122 C -41.26 -20.86 -41.36 -21 -41.45477 -21.1317 C -41.55 -21.27 -41.65 -21.4 -41.75331 -21.54003 C -41.85 -21.68 -41.95 -21.81 -42.05537 -21.94614 C -42.19 -22.12 -42.32 -22.3 -42.45565 -22.47367 C -42.59 -22.65 -42.73 -22.82 -42.86197 -22.99713 C -43 -23.17 -43.14 -23.34 -43.27432 -23.51641 C -43.41 -23.69 -43.55 -23.86 -43.69268 -24.03138 C -43.83 -24.2 -43.97 -24.37 -44.11705 -24.54194 C -44.26 -24.71 -44.4 -24.88 -44.54741 -25.048 C -44.69 -25.22 -44.84 -25.38 -44.98374 -25.54947 C -45.13 -25.72 -45.28 -25.88 -45.42601 -26.04627 C -45.57 -26.21 -45.72 -26.38 -45.87419 -26.53835 C -46.02 -26.7 -46.18 -26.86 -46.32826 -27.02564 C -46.48 -27.19 -46.63 -27.35 -46.78818 -27.50812 C -46.94 -27.67 -47.1 -27.83 -47.25392 -27.98574 C -47.57 -28.3 -47.88 -28.62 -48.20268 -28.92633 C -48.52 -29.24 -48.85 -29.54 -49.17416 -29.84738 L -50.24295 -30.83843 L -19.96516 -5.30953 A 20 14.20326 180 0 0 -13.82442 -1.83201 A 20 14.20326 180 0 0 7.23008 -3.04294 L 7.23008 -43.87711 L 8.21601 -44.43019 L 32.69122 -59.06996 L 34.50684 -60.30241 A 20 14.20326 180 0 0 39.80705 -69.93333 L 39.80705 -38.85953" />
    <path d="M -11.27438 -1.05333 A 32.5 23.08029 360 0 1 -16.9402 -1.88307 L -19.96516 -5.30953 L -19.96516 -46.1437 A 20 14.20326 180 0 0 7.23008 -43.87711" />
    <path d="M 13.36732 -6.3302 A 32.5 23.08029 360 0 1 9.36731 -4.28467" />
    <path d="M 14.22983 -6.86482 A 32.5 23.08029 360 0 1 13.36732 -6.3302" />
    <path d="M 21.50079 -11.48377 A 33 23.43537 360 0 1 -39.50294 -16.66527 A 33 23.43537 360 0 1 -40.27381 -19.44517" />
    <path d="M -54.94594 -39.98829 A 20 14.20326 180 0 0 -50.65444 -31.19708 A 20 14.20326 180 0 0 -50.24295 -30.83843 L -50.24295 -71.6726 L -19.96516 -46.1437" />
    <path d="M -48.97904 -29.66645 L -50.24295 -30.83843" />
    <path d="M 7.23008 -3.04294 L 8.21601 -3.59602 L 8.21601 -44.43019" />
    <path d="M 8.21601 -3.59602 L 15.18258 -7.76305 L 20.45361 -10.91591 L 23.93729 -12.99966" />
    <path d="M 24.82011 -12.2553 A 35.5 25.21078 360 0 1 -43.06945 -22.57509 A 35.5 25.21078 360 0 1 -43.05694 -23.24414" />
    <path d="M -23.35491 -106.32559 L -47.83011 -91.68582 L -49.64574 -90.45338 A 20 14.20326 180 0 0 -54.94594 -80.82246 L -54.94594 -39.98829" />
    <path d="M -54.94594 -80.82246 A 20 14.20326 180 0 0 -50.24295 -71.6726" />
    <path d="M 32.69122 -44.85929 L 32.69122 -59.06996" />
    <path d="M 20.45361 -46.11778 A 15 8.07725 310.13611 0 0 10.78453 -24.08949" />
    <path d="M 30.1227 -47.02495 A 15 8.07725 310.13611 0 0 20.45361 -46.11778" />
    <path d="M 34.50684 -43.32843 L 34.50684 -60.30241" />
    <path d="M 39.80705 -69.93333 A 20 14.20326 180 0 0 35.10405 -79.08318 L 4.82626 -104.61209 A 20 14.20326 180 0 0 -22.36898 -106.87868 L -23.35491 -106.32559" />
    <path d="M 25.37985 -11.78335 A 35.5 25.21078 360 0 1 -43.06945 -21.16701 L -43.06945 -22.57509" />
    <path d="M 47.83247 -23.03313 A 15 8.07725 130.13611 0 1 57.50155 -23.9403 L 30.1227 -47.02495" />
    <path d="M 57.50155 -23.9403 A 15 8.07725 130.13611 0 1 38.16338 -1.00484 L 10.78453 -24.08949" />
    <path d="M 38.16338 -1.00484 A 15 8.07725 130.13611 0 1 47.83247 -23.03313" />
    <path d="M 39.80705 -50.11621 A 62.5 44.38518 360 0 1 54.47979 -26.48812" />
    <path d="M 49.44254 -2.97958 A 62.5 44.38518 360 0 1 -70.06945 -21.16701 L -70.06945 -13.4226 A 62.5 44.38518 180 0 0 54.42135 -7.7684" />
    <path d="M -70.06945 -21.16701 A 62.5 44.38518 360 0 1 -54.94594 -50.11621" />
    <path d="M -42.06945 49.94077 A 34.5 24.50062 180 0 0 26.93055 49.94077" />
    <path d="M 36.20306 18.25908 A 62.5 44.38518 360 0 1 54.93055 49.94077 L 54.93055 57.68518" />
    <path d="M 54.93055 49.94077 A 62.5 44.38518 360 0 1 -70.06945 49.94077 L -70.06945 57.68518 A 62.5 44.38518 180 0 0 54.93055 57.68518" />
    <path d="M -70.06945 49.94077 A 62.5 44.38518 360 0 1 -51.34195 18.25908" />
    <path d="M -50.65444 -31.19708 C -50.52 -31.08 -50.39 -30.96 -50.26421 -30.84438 C -50.13 -30.73 -50 -30.61 -49.87465 -30.49008 C -49.74 -30.37 -49.62 -30.25 -49.48579 -30.13411 C -49.36 -30.02 -49.23 -29.9 -49.09772 -29.77637" />
    <path d="M 14.22983 -6.86482 C 14.34 -6.94 14.45 -7.01 14.56144 -7.07775 C 14.67 -7.15 14.78 -7.22 14.89642 -7.2927 C 15.01 -7.36 15.12 -7.44 15.2351 -7.50989 C 15.35 -7.58 15.46 -7.66 15.5778 -7.7295 C 15.69 -7.8 15.81 -7.88 15.92485 -7.95173 C 16.04 -8.03 16.16 -8.1 16.27656 -8.17676 C 16.39 -8.25 16.51 -8.33 16.63326 -8.40478 C 16.75 -8.48 16.87 -8.56 16.99528 -8.63596 C 17.12 -8.71 17.24 -8.79 17.36292 -8.87048 C 17.49 -8.95 17.61 -9.03 17.73651 -9.1085 C 17.86 -9.19 17.99 -9.27 18.11637 -9.35017 C 18.24 -9.43 18.37 -9.51 18.5028 -9.59565 C 18.63 -9.68 18.76 -9.76 18.89613 -9.8451 C 19.03 -9.93 19.16 -10.01 19.29666 -10.09865 C 19.43 -10.18 19.57 -10.27 19.70471 -10.35644 C 19.84 -10.44 19.98 -10.53 20.12059 -10.61861 C 20.21 -10.67 20.3 -10.73 20.3852 -10.78507 C 20.47 -10.84 20.56 -10.9 20.65287 -10.95319 C 20.74 -11.01 20.83 -11.07 20.92359 -11.12293 C 21.01 -11.18 21.11 -11.24 21.19735 -11.29426 C 21.29 -11.35 21.38 -11.41 21.47414 -11.46715 C 21.57 -11.53 21.66 -11.58 21.75392 -11.64154 C 21.85 -11.7 21.94 -11.76 22.03663 -11.81738 C 22.13 -11.88 22.23 -11.94 22.32222 -11.9946 C 22.45 -12.08 22.59 -12.16 22.72045 -12.24101 C 22.85 -12.32 22.99 -12.41 23.12384 -12.48972 C 23.26 -12.57 23.4 -12.66 23.53213 -12.74049 C 23.67 -12.82 23.81 -12.91 23.94507 -12.9931" />
    <path d="M -42.06945 23.58772 L -42.06945 49.94077" />
    <path d="M 26.93055 23.58772 L 26.93055 49.94077" />
</svg>