<svg version="1.1" xmlns="http://www.w3.org/2000/svg" viewBox="-56.76255518565475 -113.47744295129627 102.38876662051585 168.80539686351642" fill="none" stroke="black" stroke-width="0.6%" vector-effect="non-scaling-stroke">
    <path d="M -38.73387 40.67775 L -40.48083 41.45402 L -40.48083 -21.67335" />
    <path d="M -38.73387 40.67775 L -38.73387 34.64098 L -38.73387 -17.27525 L -40.48083 -21.67335" />
    <path d="M -40.48083 41.45402 A 34.5 27.5044 0 0 1 -44.84571 28.06331" />
    <path d="M -31.45653 -10.19016 A 32.5 25.90994 0 0 1 -38.73387 -17.27525" />
    <path d="M -38.73387 34.64098 A 32.5 25.90994 180 0 0 22.15429 22.02654" />
    <path d="M -53.23219 -41.3365 L -48.81999 -35.02562 L -34.76211 -14.91823 L -30.34991 -8.60735 A 20 15.94458 180 0 0 -4.25928 -1.98283 L -4.25928 -36.9961 L -3.14314 -37.45604 L 24.80827 -49.87641 L 26.92102 -50.95916 A 20 15.94458 180 0 0 35.07114 -63.80371 L 35.07114 -28.79044" />
    <path d="M -43.48134 -26.21729 C -43.46 -26.17 -43.44 -26.13 -43.41203 -26.08819 C -43.39 -26.05 -43.36 -26 -43.34089 -25.95889 C -43.32 -25.92 -43.29 -25.87 -43.26789 -25.82926 C -43.24 -25.79 -43.22 -25.74 -43.19303 -25.69918 C -43.17 -25.66 -43.14 -25.61 -43.11625 -25.56852 C -43.09 -25.52 -43.06 -25.48 -43.03755 -25.43714 C -43.01 -25.39 -42.98 -25.35 -42.95689 -25.3049 C -42.93 -25.26 -42.9 -25.22 -42.87423 -25.17165 C -42.85 -25.13 -42.82 -25.08 -42.78955 -25.03726 C -42.76 -24.99 -42.73 -24.95 -42.70282 -24.90156 C -42.67 -24.86 -42.64 -24.81 -42.614 -24.76441 C -42.58 -24.72 -42.55 -24.67 -42.52306 -24.62565 C -42.46 -24.53 -42.4 -24.44 -42.33468 -24.34267 C -42.3 -24.29 -42.27 -24.25 -42.23718 -24.19814 C -42.2 -24.15 -42.17 -24.1 -42.13742 -24.05138 C -42.11 -24.01 -42.08 -23.96 -42.04721 -23.91946 C -42.02 -23.88 -41.99 -23.83 -41.9552 -23.78558 C -41.92 -23.74 -41.89 -23.7 -41.86138 -23.64966 C -41.83 -23.6 -41.8 -23.56 -41.76575 -23.51161 C -41.73 -23.47 -41.7 -23.42 -41.6683 -23.37137 C -41.64 -23.32 -41.6 -23.28 -41.56905 -23.22886 C -41.54 -23.18 -41.5 -23.13 -41.46799 -23.08405 C -41.43 -23.04 -41.4 -22.99 -41.36514 -22.93688 C -41.33 -22.89 -41.3 -22.84 -41.26051 -22.78731 C -41.23 -22.74 -41.19 -22.69 -41.15413 -22.63534 C -41.12 -22.58 -41.08 -22.53 -41.04602 -22.48094 C -41.01 -22.43 -40.97 -22.38 -40.93621 -22.32413 C -40.9 -22.27 -40.86 -22.22 -40.82474 -22.16492 C -40.79 -22.11 -40.75 -22.06 -40.71166 -22.00335 C -40.64 -21.89 -40.56 -21.78 -40.48083 -21.67335" />
    <path d="M -4.25928 -1.98283 L -3.14314 -2.44278 L -3.14314 -37.45604" />
    <path d="M -3.14314 -2.44278 L 8.13889 -7.45601" />
    <path d="M 33.77531 -23.14451 A 20 15.94458 180 0 0 35.07114 -28.79044" />
    <path d="M -53.23219 -76.34977 L -30.34991 -43.62061 A 20 15.94458 180 0 0 -4.25928 -36.9961" />
    <path d="M -55.76255 -49.09923 A 20 15.94458 180 0 0 -53.23219 -41.3365 L -53.23219 -76.34977" />
    <path d="M 24.80827 -35.9703 L 24.80827 -49.87641" />
    <path d="M 10.83257 -38.83681 A 15 7.90951 325.04105 0 0 -1.46088 -21.18681" />
    <path d="M 23.12601 -38.3765 A 15 7.90951 325.04105 0 0 10.83257 -38.83681" />
    <path d="M 26.92102 -32.94838 L 26.92102 -50.95916" />
    <path d="M 35.07114 -63.80371 A 20 15.94458 180 0 0 32.54077 -71.56644 L 9.6585 -104.29559 A 20 15.94458 180 0 0 -16.43213 -110.9201 L -17.54828 -110.46016 L -45.49969 -98.0398 L -47.61244 -96.95705 A 20 15.94458 180 0 0 -55.76255 -84.1125 L -55.76255 -49.09923" />
    <path d="M -55.76255 -84.1125 A 20 15.94458 180 0 0 -53.23219 -76.34977" />
    <path d="M 31.52398 -9.2413 A 15 7.90951 145.04105 0 1 43.81743 -8.78098 L 23.12601 -38.3765" />
    <path d="M 43.81743 -8.78098 A 15 7.90951 145.04105 0 1 19.23054 8.4087 L -1.46088 -21.18681" />
    <path d="M 19.23054 8.4087 A 15 7.90951 145.04105 0 1 31.52398 -9.2413" />
    <path d="M -22.67595 45.99935 A 12.5 9.96536 180 0 0 1.98454 45.99935" />
    <path d="M -30.34991 -8.60735 L -30.34991 -43.62061" />
    <path d="M 22.15429 10.30688 L 22.15429 22.02654" />
    <path d="M -48.81999 -35.02562 C -48.75 -34.93 -48.69 -34.83 -48.6205 -34.7388 C -48.55 -34.64 -48.49 -34.55 -48.42255 -34.45127 C -48.36 -34.36 -48.29 -34.26 -48.22615 -34.16305 C -48.16 -34.07 -48.1 -33.97 -48.03129 -33.87416 C -47.97 -33.78 -47.9 -33.68 -47.83796 -33.58463 C -47.77 -33.49 -47.71 -33.39 -47.64618 -33.29447 C -47.58 -33.2 -47.52 -33.1 -47.45592 -33.00374 C -47.39 -32.91 -47.33 -32.81 -47.26719 -32.71244 C -47.2 -32.62 -47.14 -32.52 -47.07999 -32.42062 C -47.02 -32.32 -46.96 -32.23 -46.8943 -32.1283 C -46.83 -32.03 -46.77 -31.93 -46.71014 -31.83553 C -46.65 -31.74 -46.59 -31.64 -46.52749 -31.54233 C -46.47 -31.44 -46.41 -31.35 -46.34635 -31.24874 C -46.29 -31.15 -46.23 -31.05 -46.16672 -30.95481 C -46.11 -30.86 -46.05 -30.76 -45.9886 -30.66058 C -45.93 -30.56 -45.87 -30.46 -45.81197 -30.36607 C -45.71 -30.19 -45.61 -30.02 -45.5047 -29.84718 C -45.4 -29.67 -45.3 -29.5 -45.20204 -29.32784 C -45.1 -29.15 -45 -28.98 -44.90396 -28.80831 C -44.81 -28.64 -44.71 -28.46 -44.61045 -28.28886 C -44.51 -28.12 -44.42 -27.94 -44.32146 -27.76976 C -44.23 -27.6 -44.13 -27.42 -44.03697 -27.25128 C -43.94 -27.08 -43.85 -26.91 -43.75695 -26.7337 C -43.66 -26.56 -43.57 -26.39 -43.48134 -26.21729" />
    <path d="M -44.84571 -28.70584 L -44.84571 28.06331" />
</svg>