<svg version="1.1" xmlns="http://www.w3.org/2000/svg" viewBox="-92.37226931141254 -146.53154133539516 192.75216095974466 289.7822506610375" fill="none" stroke="black" stroke-width="0.6%" vector-effect="non-scaling-stroke">
    <path d="M 50.68977 101.95998 L 50.68977 102.43044" />
    <path d="M 49.15555 103.10566 L 49.81115 103.83108" />
    <path d="M 49.15555 103.10566 L 49.15555 102.09779" />
    <path d="M 31.40054 111.76651 L 31.40054 86.50966 L 27.45541 82.14437 L 27.45541 76.25111 L 22.63359 70.91574 L 22.63359 72.59953" />
    <path d="M 42.35924 123.89233 A 12.5 6.74552 180 0 0 49.37989 117.82942 L 49.37989 103.35389" />
    <path d="M 42.35924 123.89233 L 42.35924 98.63549" />
    <path d="M 46.30437 103.00078 L 42.35924 98.63549" />
    <path d="M 50.37043 101.60662 A 21.5 11.60229 360 0 1 46.30437 103.00078 L 46.30437 97.10752" />
    <path d="M 51.12619 102.44288 L 46.30437 97.10752" />
    <path d="M 42.35924 123.89233 L 31.40054 111.76651" />
    <path d="M 51.12619 102.44288 L 51.12619 104.12667 L 49.81115 102.67157 L 49.81115 126.24463" />
    <path d="M 51.12619 127.69972 L 49.81115 126.24463" />
    <path d="M 51.12619 127.69972 L 51.12619 129.38351" />
    <path d="M 52.00289 130.35358 L 51.12619 129.38351" />
    <path d="M 52.00289 130.35358 L 52.44123 129.15482" />
    <path d="M 64.27662 142.25071 L 52.44123 129.15482" />
    <path d="M 64.27662 132.98986 L 64.27662 142.25071 A 62.5 33.7276 180 0 0 99.37989 111.93616" />
    <path d="M 64.27662 132.98986 L 52.00289 119.40895 A 34.5 18.61764 180 0 0 71.37989 102.67531" />
    <path d="M 52.00289 43.63841 L 52.00289 119.40895" />
    <path d="M 64.27662 57.21933 L 52.00289 43.63841" />
    <path d="M 64.27662 47.95849 L 64.27662 57.21933 A 62.5 33.7276 180 0 0 99.37989 26.90478" />
    <path d="M 64.27662 47.95849 L 52.44123 34.8626 L 52.44123 33.17881 L 51.34537 31.96623 A 33 17.80817 180 0 0 69.45343 18.81383 A 33 17.80817 180 0 0 69.87448 16.28249 L 69.83812 16.41342 L 69.80179 16.54416 L 69.7655 16.67473 L 69.72925 16.80512 L 69.69304 16.93534 L 69.65687 17.06538 L 69.62074 17.19524 L 69.58465 17.32492 L 69.5486 17.45443 L 69.51259 17.58376 L 69.47662 17.71292 L 69.44068 17.8419 L 69.40479 17.97071 L 69.36893 18.09934 L 69.36893 15.85981" />
    <path d="M 51.12619 33.4075 L 51.34537 31.96623" />
    <path d="M 51.12619 30.03992 L 51.12619 33.4075" />
    <path d="M 51.12619 30.03992 C 51.26 29.92 51.39 29.81 51.52872 29.69489 C 51.66 29.58 51.8 29.47 51.93136 29.3502 C 52.07 29.24 52.2 29.12 52.3341 29.00582 C 52.47 28.89 52.6 28.78 52.73694 28.66173 C 52.87 28.55 53.01 28.43 53.13986 28.3179 C 53.27 28.2 53.41 28.09 53.54287 27.97432 C 53.68 27.86 53.81 27.75 53.94596 27.63096 C 54.08 27.52 54.21 27.4 54.34911 27.28781 C 54.62 27.06 54.89 26.83 55.15562 26.60208 C 55.42 26.37 55.69 26.15 55.96235 25.91703 C 56.23 25.69 56.5 25.46 56.76928 25.23258 C 57.04 25 57.31 24.78 57.57638 24.54865 A 20 10.79283 180 0 0 62.27609 21.24292 A 20 10.79283 180 0 0 63.26682 19.96381 L 63.26682 -28.86609 L 78.56968 -52.84721 A 20 10.79283 180 0 0 79.65948 -56.36127 A 20 10.79283 180 0 0 67.34587 -66.32522 L 66.17134 -66.56601 L 35.91502 -72.18852 L 33.49359 -72.54848 A 20 10.79283 180 0 0 16.1834 -70.08269 L 57.57638 -24.28125 A 20 10.79283 180 0 0 63.26682 -28.86609" />
    <path d="M 57.57638 -24.28125 L 57.57638 24.54865" />
    <path d="M 16.1834 -70.08269 L 16.1834 -21.25279" />
    <path d="M 22.63359 -1.48721 C 22.5 -1.9 22.37 -2.31 22.23106 -2.72303 C 22.1 -3.13 21.96 -3.55 21.82843 -3.95876 C 21.56 -4.78 21.29 -5.61 21.02284 -6.42999 C 20.75 -7.25 20.49 -8.08 20.21691 -8.90095 C 19.95 -9.72 19.68 -10.55 19.41067 -11.37167 C 19.14 -12.2 18.87 -13.02 18.60416 -13.84219 C 18.34 -14.67 18.07 -15.49 17.79743 -16.31254 C 17.53 -17.14 17.26 -17.96 16.9905 -18.78273 C 16.72 -19.61 16.45 -20.43 16.1834 -21.25279" />
    <path d="M 22.63359 -1.48721 L 22.63359 1.88037 L 22.41442 -0.04594 L 21.31855 -1.25852 A 35.5 19.15728 360 0 1 22.60346 -1.57973" />
    <path d="M 21.31855 0.42527 L 21.31855 -1.25852" />
    <path d="M 21.31855 0.42527 L 9.48316 -12.67062 A 62.5 33.7276 360 0 1 18.36651 -14.57002" />
    <path d="M 9.48316 -3.40977 L 9.48316 -12.67062" />
    <path d="M 21.75689 10.17114 L 9.48316 -3.40977" />
    <path d="M 21.75689 10.17114 L 21.75689 85.94168 L 9.48316 72.36076 A 62.5 33.7276 360 0 1 21.75689 69.94995" />
    <path d="M 9.48316 81.62161 L 9.48316 72.36076" />
    <path d="M 21.31855 94.71749 L 9.48316 81.62161" />
    <path d="M 21.75689 96.88631 L 21.31855 94.71749" />
    <path d="M 22.63359 97.85638 L 21.75689 96.88631" />
    <path d="M 22.63359 96.17259 L 22.63359 97.85638" />
    <path d="M 23.94863 97.62769 L 22.63359 96.17259" />
    <path d="M 23.94863 74.05463 L 23.94863 97.62769 A 29.5 15.91943 0 0 1 31.40054 96.29375" />
    <path d="M 23.94863 74.05463 L 22.63359 72.59953" />
    <path d="M 23.87554 72.28996 A 32.5 17.53835 180 0 0 22.63359 72.59953" />
    <path d="M 56.82755 28.12256 L 63.26682 19.96381" />
    <path d="M 56.82755 28.12256 A 32.5 17.53835 0 0 1 51.12619 30.03992" />
    <path d="M 68.88767 17.31717 A 32.5 17.53835 0 0 1 56.82755 28.12256" />
    <path d="M 69.16997 19.63411 A 32.5 17.53835 180 0 0 69.36893 18.09934" />
    <path d="M 49.81115 102.67157 A 29.5 15.91943 180 0 0 51.02657 102.33264" />
    <path d="M 25.19186 73.74648 A 29.5 15.91943 180 0 0 23.94863 74.05463" />
    <path d="M 78.56968 -4.01731 A 20 10.79283 180 0 0 79.65948 -7.53137" />
    <path d="M 22.63359 -0.10308 A 33 17.80817 180 0 0 22.41442 -0.04594" />
    <path d="M 31.40054 96.33265 A 32.5 17.53835 180 0 0 28.36923 96.69361" />
    <path d="M 23.87554 97.54681 A 32.5 17.53835 180 0 0 22.63359 97.85638" />
    <path d="M 52.00289 130.35358 A 34.5 18.61764 180 0 0 53.22032 130.01689" />
    <path d="M 71.11893 10.89964 A 35.5 19.15728 360 0 1 71.36506 11.4123" />
    <path d="M 63.26682 19.96381 L 64.18452 18.5257 L 77.65199 -2.57919 L 78.56968 -4.01731 L 78.56968 -52.84721" />
    <path d="M 74.9133 16.64015 L 72.37989 17.3069" />
    <path d="M 72.37444 15.62455 L 69.87448 16.28249" />
    <path d="M 74.9133 16.64015 A 5 3.7835 317.89435 0 0 74.12882 14.47041 L 71.05537 11.06963" />
    <path d="M 74.12882 14.47041 A 5 3.7835 317.89435 0 0 70.10444 13.70663" />
    <path d="M 72.37444 15.62455 A 35.5 19.15728 360 0 1 72.37989 15.96014 A 35.5 19.15728 360 0 1 52.44123 33.17881" />
    <path d="M 72.37989 17.64393 A 35.5 19.15728 360 0 1 52.44123 34.8626" />
    <path d="M 71.37989 74.55175 A 62.5 33.7276 360 0 1 99.37989 102.67531 L 99.37989 111.93616" />
    <path d="M 99.37989 102.67531 A 62.5 33.7276 360 0 1 64.27662 132.98986" />
    <path d="M 79.63134 -6.95901 A 62.5 33.7276 360 0 1 99.37989 17.64393 L 99.37989 26.90478" />
    <path d="M 99.37989 17.64393 A 62.5 33.7276 360 0 1 64.27662 47.95849" />
    <path d="M 83.90135 14.27465 L 74.9133 16.64015 A 5 3.7835 137.89435 0 1 83.11687 12.1049 L 76.54166 4.82941" />
    <path d="M 74.11113 3.8099 A 5 3.7835 137.89435 0 1 76.54166 4.82941" />
    <path d="M 83.11687 12.1049 A 5 3.7835 137.89435 0 1 83.90135 14.27465" />
    <path d="M -91.37227 39.18123 A 62.5 33.7276 180 0 0 21.75689 58.957" />
    <path d="M 5.62773 1.79683 A 62.5 33.7276 360 0 1 21.68373 10.09018" />
    <path d="M 21.75689 49.69616 A 62.5 33.7276 360 0 1 -91.37227 29.92039 L -91.37227 39.18123" />
    <path d="M -91.37227 29.92039 A 62.5 33.7276 360 0 1 -63.37227 1.79683" />
    <path d="M 5.62773 29.92039 A 34.5 18.61764 360 0 1 -63.37227 29.92039" />
    <path d="M -91.37227 -45.85015 A 62.5 33.7276 180 0 0 16.1834 -22.47527" />
    <path d="M 13.87918 -79.71394 A 62.5 33.7276 360 0 1 24.70841 -72.47505" />
    <path d="M 16.1834 -31.73612 A 62.5 33.7276 360 0 1 -91.37227 -55.11099 L -91.37227 -45.85015" />
    <path d="M -91.37227 -55.11099 A 62.5 33.7276 360 0 1 -71.65186 -79.69968" />
    <path d="M -62.63605 -46.22492 L -69.31851 -44.46621" />
    <path d="M -75.89373 -51.7417 L -69.31851 -44.46621" />
    <path d="M 16.1834 -57.96291 L 9.16114 -56.11477 A 5 3.7835 317.89435 0 0 8.37666 -58.28452 L 5.30321 -61.68529" />
    <path d="M 9.16114 -56.11477 L 6.62773 -55.44802" />
    <path d="M 6.62773 -55.11099 A 35.5 19.15728 360 0 1 -58.29588 -44.3926" />
    <path d="M -66.44241 -49.15036 A 5 3.7835 317.89435 0 0 -69.31851 -44.46621" />
    <path d="M -70.86792 -57.24431 A 5 3.7835 317.89435 0 0 -75.89373 -51.7417" />
    <path d="M 8.35897 -68.94503 A 5 3.7835 137.89435 0 1 10.7895 -67.92552" />
    <path d="M 9.16114 -56.11477 A 5 3.7835 137.89435 0 1 16.1834 -61.44308" />
    <path d="M 6.62228 -57.13038 L 4.12232 -56.47243 L 4.08596 -56.34151 L 4.04963 -56.21076 L 4.01334 -56.08019 L 3.97709 -55.9498 L 3.94088 -55.81959 L 3.90471 -55.68955 L 3.86858 -55.55969 L 3.83249 -55.43 L 3.79644 -55.30049 L 3.76043 -55.17116 L 3.72446 -55.042 L 3.68852 -54.91302 L 3.65263 -54.78422 L 3.61677 -54.65559 L 3.61677 -56.89512" />
    <path d="M 8.37666 -58.28452 A 5 3.7835 317.89435 0 0 4.35228 -59.04829" />
    <path d="M 6.62228 -57.13038 A 35.5 19.15728 360 0 1 6.62773 -56.79478 A 35.5 19.15728 360 0 1 -55.00303 -43.82728" />
    <path d="M -51.75663 -43.96417 A 33 17.80817 180 0 0 3.70128 -53.94109 A 33 17.80817 180 0 0 4.12232 -56.47243" />
    <path d="M 5.36677 -61.85528 A 35.5 19.15728 360 0 1 5.6129 -61.34263" />
    <path d="M 3.41781 -53.12081 A 32.5 17.53835 180 0 0 3.61677 -54.65559" />
    <path d="M -39.45403 -41.89588 A 32.5 17.53835 0 0 1 -49.0211 -44.71745" />
    <path d="M -28.1957 -40.94402 A 32.5 17.53835 0 0 1 -39.45403 -41.89588" />
    <path d="M -26.53704 -40.98555 A 32.5 17.53835 0 0 1 -28.1957 -40.94402 L -27.90739 -46.10045 L -27.90739 -94.93035 L -25.48597 -94.57039 A 20 10.79283 180 0 0 -2.48534 -101.62101 L 12.81753 -125.60213 A 20 10.79283 180 0 0 13.90732 -129.1162 L 13.90732 -80.2863" />
    <path d="M -8.92461 -44.63236 A 32.5 17.53835 0 0 1 -26.53704 -40.98555 L -25.48597 -45.74048 L -25.48597 -94.57039" />
    <path d="M 3.13551 -55.43775 A 32.5 17.53835 0 0 1 -8.92461 -44.63236 L -2.48534 -52.79111" />
    <path d="M -2.48534 -52.79111 L -1.56764 -54.22923 L 11.89983 -75.33411 L 12.81753 -76.77223 L 12.81753 -125.60213" />
    <path d="M -55.2592 -138.25278 L -70.56206 -114.27166 A 20 10.79283 180 0 0 -71.65186 -110.75759 L -71.65186 -61.92769 A 20 10.79283 180 0 0 -71.05589 -59.31259" />
    <path d="M -43.93783 -49.07937 L -43.03555 -48.9117 L -27.90739 -46.10045 L -25.48597 -45.74048 A 20 10.79283 180 0 0 -3.47607 -51.512 C -3.49 -51.5 -3.5 -51.48 -3.51589 -51.46837 C -3.53 -51.45 -3.54 -51.44 -3.551 -51.42943 C -3.56 -51.42 -3.57 -51.41 -3.58117 -51.39549 C -3.59 -51.39 -3.6 -51.38 -3.60621 -51.36689 C -3.61 -51.36 -3.62 -51.35 -3.62596 -51.34399 C -3.63 -51.34 -3.64 -51.33 -3.64023 -51.32715 C -3.64 -51.32 -3.65 -51.32 -3.64888 -51.31677 C -3.65 -51.31 -3.65 -51.31 -3.65178 -51.31322 C -3.65 -51.31 -3.65 -51.31 -3.65101 -51.31418 C -3.65 -51.31 -3.65 -51.32 -3.64871 -51.31708" />
    <path d="M -3.47607 -51.512 A 20 10.79283 180 0 0 -2.48534 -52.79111 L -2.48534 -101.62101" />
    <path d="M 12.81753 -76.77223 A 20 10.79283 180 0 0 13.90732 -80.2863" />
    <path d="M 0.41918 -139.32093 L -29.83714 -144.94344 L -32.25857 -145.3034 A 20 10.79283 180 0 0 -55.2592 -138.25278" />
    <path d="M -59.33825 -80.71475 L -59.33825 -100.79364 L -58.16372 -100.55286 L -27.90739 -94.93035" />
    <path d="M -71.65186 -110.75759 A 20 10.79283 180 0 0 -59.33825 -100.79364" />
    <path d="M 13.90732 -129.1162 A 20 10.79283 180 0 0 1.59371 -139.08014 L 0.41918 -139.32093" />
    <path d="M -58.16372 -82.55536 L -58.16372 -100.55286" />
    <path d="M -43.03555 -91.00644 A 15 11.9403 32.54281 0 0 -55.6804 -86.44697" />
    <path d="M -30.39071 -70.30908 A 15 11.9403 32.54281 0 0 -43.03555 -91.00644" />
    <path d="M -56.87325 -69.32139 A 15 11.9403 212.54281 0 1 -44.2284 -48.62402 L -30.39071 -70.30908" />
    <path d="M -44.2284 -48.62402 A 15 11.9403 212.54281 0 1 -69.51809 -64.76191 L -55.6804 -86.44697" />
    <path d="M -69.51809 -64.76191 A 15 11.9403 212.54281 0 1 -56.87325 -69.32139" />
    <path d="M 62.10345 21.43784 C 62.1 21.44 62.1 21.44 62.10115 21.44075 C 62.1 21.44 62.1 21.44 62.10038 21.4417 C 62.1 21.44 62.1 21.44 62.10328 21.43816 C 62.11 21.44 62.11 21.43 62.11193 21.42777 C 62.12 21.42 62.12 21.42 62.1262 21.41094 C 62.13 21.4 62.14 21.4 62.14594 21.38804 C 62.15 21.38 62.16 21.37 62.17099 21.35944 C 62.18 21.35 62.19 21.34 62.20116 21.3255 C 62.21 21.31 62.22 21.3 62.23627 21.28655 C 62.25 21.27 62.26 21.26 62.27609 21.24292" />
    <path d="M 71.37989 55.02834 L 71.37989 102.67531" />
    <path d="M 79.65948 -56.36127 L 79.65948 -7.53137" />
    <path d="M 68.88767 17.31717 C 68.94 17.16 68.99 17 69.04502 16.83673 C 69.1 16.68 69.15 16.52 69.20336 16.35707 C 69.26 16.2 69.31 16.04 69.36271 15.87841 C 69.42 15.72 69.47 15.56 69.52304 15.40097 C 69.58 15.24 69.63 15.08 69.68435 14.92497 C 69.74 14.77 69.79 14.61 69.84663 14.45063 C 69.9 14.29 69.96 14.14 70.00986 13.97817 C 70.06 13.82 70.12 13.66 70.17403 13.50784 C 70.2 13.42 70.23 13.33 70.2654 13.24821 C 70.3 13.16 70.33 13.08 70.35705 12.98934 C 70.39 12.9 70.42 12.82 70.44899 12.73125 C 70.48 12.65 70.51 12.56 70.5412 12.474 C 70.57 12.39 70.6 12.3 70.63369 12.2176 C 70.66 12.13 70.7 12.05 70.72645 11.96209 C 70.76 11.88 70.79 11.79 70.81949 11.70751 C 70.85 11.62 70.88 11.54 70.91279 11.45388 C 70.94 11.37 70.98 11.29 71.00637 11.20124 C 71.04 11.12 71.07 11.03 71.10022 10.94959 C 71.13 10.87 71.16 10.78 71.19435 10.69898 C 71.23 10.62 71.26 10.53 71.28874 10.44943 C 71.32 10.37 71.35 10.28 71.3834 10.20094 C 71.42 10.12 71.45 10.04 71.47834 9.95355 C 71.51 9.87 71.54 9.79 71.57355 9.70727 C 71.61 9.63 71.64 9.54 71.66904 9.46212 C 71.7 9.38 71.73 9.3 71.76481 9.21811 C 71.8 9.14 71.83 9.06 71.86085 8.97525 C 71.92 8.81 71.99 8.65 72.05379 8.49304 C 72.18 8.17 72.31 7.86 72.44318 7.54284 C 72.7 6.92 72.97 6.3 73.237 5.69954 C 74.59 2.67 76.03 -0.04 77.65199 -2.57919" />
    <path d="M 72.37989 17.64393 L 72.37989 15.96014" />
    <path d="M -63.37227 -17.72659 L -63.37227 29.92039" />
    <path d="M 5.62773 -17.72659 L 5.62773 29.92039" />
    <path d="M 16.1834 -61.95715 L 10.7895 -67.92552" />
    <path d="M 6.62773 -55.11099 L 6.62773 -56.79478" />
    <path d="M 3.13551 -55.43775 C 3.19 -55.6 3.24 -55.76 3.29286 -55.91819 C 3.35 -56.08 3.4 -56.24 3.45121 -56.39785 C 3.5 -56.56 3.56 -56.72 3.61055 -56.87651 C 3.66 -57.04 3.72 -57.2 3.77088 -57.35395 C 3.82 -57.51 3.88 -57.67 3.93219 -57.82996 C 3.99 -57.99 4.04 -58.15 4.09447 -58.3043 C 4.15 -58.46 4.2 -58.62 4.2577 -58.77675 C 4.31 -58.93 4.37 -59.09 4.42187 -59.24708 C 4.45 -59.33 4.48 -59.42 4.51324 -59.50671 C 4.54 -59.59 4.57 -59.68 4.6049 -59.76558 C 4.64 -59.85 4.67 -59.94 4.69683 -60.02367 C 4.73 -60.11 4.76 -60.2 4.78904 -60.28093 C 4.82 -60.37 4.85 -60.45 4.88153 -60.53733 C 4.91 -60.62 4.94 -60.71 4.97429 -60.79283 C 5.01 -60.88 5.04 -60.96 5.06733 -61.04741 C 5.1 -61.13 5.13 -61.22 5.16063 -61.30104 C 5.19 -61.39 5.22 -61.47 5.25421 -61.55369 C 5.29 -61.64 5.32 -61.72 5.34806 -61.80533 C 5.38 -61.89 5.41 -61.97 5.44219 -62.05594 C 5.47 -62.14 5.51 -62.22 5.53658 -62.3055 C 5.57 -62.39 5.6 -62.47 5.63124 -62.55398 C 5.66 -62.64 5.69 -62.72 5.72618 -62.80137 C 5.76 -62.88 5.79 -62.97 5.82139 -63.04765 C 5.85 -63.13 5.89 -63.21 5.91688 -63.2928 C 5.95 -63.37 5.98 -63.46 6.01265 -63.53681 C 6.04 -63.62 6.08 -63.7 6.10869 -63.77967 C 6.17 -63.94 6.24 -64.1 6.30163 -64.26188 C 6.43 -64.58 6.56 -64.9 6.69102 -65.21209 C 6.95 -65.84 7.22 -66.45 7.48484 -67.05538 C 8.83 -70.08 10.28 -72.8 11.89983 -75.33411" />
</svg>