<svg version="1.1" xmlns="http://www.w3.org/2000/svg" viewBox="-20.85899857448298 -61.05591380709677 54.37460795970571 129.40984722027855" fill="none" stroke="black" stroke-width="0.6%" vector-effect="non-scaling-stroke">
    <path d="M 1.29254 66.88738 A 35.5 28.41687 0 0 1 -10.78409 59.87097 A 35.5 28.41687 0 0 1 -18.859 34.19782" />
    <path d="M 29.58529 14.7622 A 35.5 28.41687 0 0 1 29.98947 14.90277 L 29.58529 16.83368 L 28.77692 18.29804 A 32.5 26.01545 180 0 0 28.22102 18.10633" />
    <path d="M -10.03972 60.53517 A 34.5 27.6164 180 0 0 1.69672 67.35393" />
    <path d="M 1.29254 66.88738 L 1.69672 67.35393" />
    <path d="M 1.69672 66.1552 L 1.29254 66.88738" />
    <path d="M 29.98947 14.90277 L 29.58529 15.63495 L 29.58529 0.603" />
    <path d="M -18.859 40.89508 A 34.5 27.6164 180 0 0 1.69672 66.1552 L 1.69672 28.39516 A 34.5 27.6164 0 0 1 0.51754 27.95662" />
    <path d="M 29.58529 -2.66961 L 29.58529 -21.24995" />
    <path d="M 28.77692 17.0993 L 28.77692 18.29804" />
    <path d="M 27.56438 19.29584 L 28.77692 17.0993" />
    <path d="M 29.18111 -23.79038 L 29.18111 -21.39291 L 30.37019 -20.97231 L 30.77437 -21.70449 L 30.77437 -24.10196 L 30.37019 -23.36978 L 30.37019 -20.97231" />
    <path d="M 27.56438 19.29584 L 27.56438 19.28082" />
    <path d="M 29.58529 -24.52255 L 29.18111 -23.79038 L 30.37019 -23.36978" />
    <path d="M 27.56438 13.3172 A 5 1.21126 289.47958 0 0 26.09911 20.64672 A 5 1.21126 289.47958 0 0 27.56438 19.28082" />
    <path d="M 29.58529 -24.52255 L 29.58529 -40.15387" />
    <path d="M 29.58529 -43.42648 L 29.58529 -51.49401" />
    <path d="M 27.56438 13.3172 L 27.56438 3.11296 A 29.5 23.61402 180 0 0 2.50508 3.56847" />
    <path d="M 29.98947 -52.22619 L 29.58529 -51.49401" />
    <path d="M 28.77692 0.91643 L 27.56438 3.11296" />
    <path d="M 30.16727 -52.54828 L 29.98947 -52.22619" />
    <path d="M 28.77692 0.91643 L 28.77692 0.31706 L 29.96601 0.73766 L 30.37019 0.00549 L 30.37019 -2.39198 L 29.96601 -1.6598 L 29.96601 0.73766" />
    <path d="M 30.29261 -52.77532 L 30.16727 -52.54828" />
    <path d="M 30.90962 -53.89309 L 30.29261 -52.77532" />
    <path d="M 31.17054 -54.39979 A 4 0.96901 109.47958 0 1 30.90962 -53.89309" />
    <path d="M 29.18111 -2.81258 L 28.77692 -2.0804 L 28.77692 -40.43981 L 29.96601 -40.01921 L 30.37019 -40.75138 L 30.37019 -43.14885 L 29.96601 -42.41667 L 29.96601 -40.01921" />
    <path d="M 32.51561 -59.19976 A 4 0.96901 109.47958 0 1 31.17054 -54.39979" />
    <path d="M 31.17054 -59.12654 A 4 0.96901 109.47958 0 1 32.10843 -60.05295 A 4 0.96901 109.47958 0 1 32.51561 -59.19976" />
    <path d="M 30.90962 -58.68791 A 4 0.96901 109.47958 0 1 31.17054 -59.12654 L 18.10392 -59.25617 C 23.44 -59.2 23.48 -59.2 23.50952 -59.20284 C 23.54 -59.2 23.58 -59.2 23.60888 -59.20277 C 23.64 -59.2 23.68 -59.2 23.70937 -59.20329 C 23.74 -59.2 23.78 -59.2 23.81095 -59.2044 C 23.84 -59.2 23.88 -59.21 23.91354 -59.20606 C 23.95 -59.21 23.98 -59.21 24.01711 -59.20827 C 24.05 -59.21 24.09 -59.21 24.12158 -59.21101 C 24.16 -59.21 24.19 -59.21 24.22692 -59.21425 C 24.26 -59.22 24.3 -59.22 24.33306 -59.218 C 24.37 -59.22 24.4 -59.22 24.43998 -59.22222 C 24.48 -59.22 24.51 -59.23 24.54761 -59.2269 C 24.58 -59.23 24.62 -59.23 24.65591 -59.23204 C 24.69 -59.23 24.73 -59.24 24.76485 -59.23761 C 24.8 -59.24 24.84 -59.24 24.87439 -59.2436 C 24.91 -59.25 24.95 -59.25 24.98448 -59.25 C 25.02 -59.25 25.06 -59.25 25.0951 -59.25679 C 25.13 -59.26 25.17 -59.26 25.2062 -59.26396 C 25.24 -59.27 25.28 -59.27 25.31777 -59.27149 C 25.36 -59.27 25.39 -59.28 25.42976 -59.27938 C 25.47 -59.28 25.5 -59.28 25.54216 -59.28761 C 25.58 -59.29 25.62 -59.29 25.65494 -59.29617 C 25.69 -59.3 25.73 -59.3 25.76806 -59.30505 C 25.81 -59.31 25.84 -59.31 25.88153 -59.31423 C 25.92 -59.32 25.96 -59.32 25.99531 -59.3237 C 26.03 -59.33 26.07 -59.33 26.10938 -59.33346 C 26.15 -59.34 26.19 -59.34 26.22374 -59.3435 C 26.26 -59.35 26.3 -59.35 26.33837 -59.3538 C 26.38 -59.36 26.41 -59.36 26.45326 -59.36435 C 26.61 -59.38 26.76 -59.39 26.91528 -59.40889 C 28.62 -59.58 30.36 -59.81 32.10843 -60.05295" />
    <path d="M 30.29261 -57.57025 L 30.90962 -58.68791 L 17.83582 -58.7705 C 23.66 -58.71 23.78 -58.69 23.89886 -58.66615 C 24.02 -58.64 24.14 -58.62 24.26257 -58.59489 C 24.38 -58.57 24.5 -58.55 24.62436 -58.52077 C 24.74 -58.5 24.86 -58.47 24.98416 -58.44382 C 25.09 -58.42 25.19 -58.4 25.29445 -58.37485 C 25.4 -58.35 25.5 -58.33 25.60316 -58.30381 C 25.71 -58.28 25.81 -58.26 25.91027 -58.23073 C 26.01 -58.21 26.11 -58.18 26.21574 -58.15564 C 26.4 -58.11 26.58 -58.06 26.76256 -58.01516 C 26.94 -57.97 27.12 -57.92 27.30376 -57.86837 C 27.47 -57.82 27.63 -57.78 27.79558 -57.72818 C 27.96 -57.68 28.12 -57.63 28.28242 -57.58294" />
    <path d="M 29.18111 -43.56945 L 28.77692 -42.83727 L 28.77692 -50.02966 L 28.97901 -51.59448 L 28.97901 -55.19067 A 33 26.41569 180 0 0 18.644 -57.3349 L 17.79334 -57.10968 L 16.94125 -56.86947 L 16.08829 -56.61442 L 15.23503 -56.3447 L 14.38204 -56.06049 L 13.5299 -55.76198 L 12.67916 -55.44938 L 11.83041 -55.12289 L 10.9842 -54.78273 L 10.1411 -54.42912 L 9.30169 -54.06231 L 8.46651 -53.68253 L 7.63613 -53.29005 L 6.81109 -52.88512 L 8.08838 -55.19893" />
    <path d="M 30.16727 -57.3432 L 30.29261 -57.57025 L 17.2188 -57.65277" />
    <path d="M 29.98947 -57.02112 L 30.16727 -57.3432 L 17.09346 -57.42573 A 35.5 28.41687 0 0 1 29.98947 -57.02112 L 28.97901 -55.19067" />
    <path d="M 30.59574 -56.77081 A 1.75 0.42394 109.47958 0 1 31.17932 -57.37175 A 1.75 0.42394 109.47958 0 1 30.01217 -54.07209 A 1.75 0.42394 109.47958 0 1 30.59574 -56.77081 Z" />
    <path d="M 27.76647 14.88403 A 1.75 0.42394 109.47958 0 1 28.35004 14.28309 A 1.75 0.42394 109.47958 0 1 27.18289 17.58275 A 1.75 0.42394 109.47958 0 1 27.76647 14.88403 Z" />
    <path d="M 2.50508 65.88958 L 1.69672 67.35393" />
    <path d="M 2.1009 27.66298 L 1.69672 28.39516" />
    <path d="M 2.1009 25.26552 L 2.1009 27.66298 L 0.91182 27.24238 L 0.51754 27.95662" />
    <path d="M 1.69672 25.9977 L 2.1009 25.26552" />
    <path d="M 2.50508 64.69085 L 2.50508 65.88958" />
    <path d="M 1.69672 25.9977 L 1.69672 -0.97376 L 1.29254 -0.24158 L 1.11474 0.0805 L 0.9894 0.30755 L 0.37239 1.42522 A 4 0.96901 109.47958 0 1 0.11146 1.86385 A 4 0.96901 109.47958 0 1 -1.07731 2.68234 A 4 0.96901 109.47958 0 1 -1.2336 1.93706 A 4 0.96901 109.47958 0 1 0.11146 -2.8629 L -8.7742 -10.56636 C -7.58 -9.53 -7.59 -9.53 -7.59698 -9.53031 C -7.61 -9.53 -7.61 -9.53 -7.62084 -9.53544 C -7.63 -9.54 -7.64 -9.54 -7.64422 -9.54006 C -7.65 -9.54 -7.66 -9.54 -7.66712 -9.54417 C -7.67 -9.55 -7.68 -9.55 -7.68953 -9.54776 C -7.7 -9.55 -7.7 -9.55 -7.71144 -9.55084 C -7.72 -9.55 -7.73 -9.55 -7.73285 -9.5534 C -7.74 -9.55 -7.75 -9.55 -7.75376 -9.55546 C -7.76 -9.56 -7.77 -9.56 -7.77418 -9.55701 C -7.78 -9.56 -7.79 -9.56 -7.7941 -9.55806 C -7.81 -9.56 -7.82 -9.56 -7.83246 -9.5587 C -7.84 -9.56 -7.86 -9.56 -7.86888 -9.55741 C -7.88 -9.56 -7.89 -9.56 -7.90339 -9.55428 C -7.91 -9.55 -7.93 -9.55 -7.93606 -9.54938 C -7.95 -9.55 -7.96 -9.55 -7.96695 -9.54279 C -7.98 -9.54 -7.99 -9.54 -7.99612 -9.53461 C -8.01 -9.53 -8.01 -9.53 -8.02365 -9.52492 C -8.03 -9.52 -8.04 -9.52 -8.04962 -9.51381 C -8.06 -9.51 -8.07 -9.51 -8.07411 -9.50139 C -8.08 -9.5 -8.09 -9.49 -8.0972 -9.48773 C -8.1 -9.48 -8.11 -9.48 -8.11896 -9.47294 C -8.13 -9.47 -8.13 -9.46 -8.14082 -9.45597 C -8.15 -9.45 -8.15 -9.44 -8.16137 -9.43788 C -8.17 -9.43 -8.17 -9.43 -8.18069 -9.41874 C -8.19 -9.41 -8.19 -9.41 -8.19887 -9.39864 C -8.2 -9.39 -8.21 -9.38 -8.216 -9.37763 C -8.22 -9.37 -8.23 -9.36 -8.23213 -9.3558 C -8.24 -9.34 -8.25 -9.33 -8.26168 -9.30988 C -8.3 -9.25 -8.33 -9.18 -8.35146 -9.10298 C -8.47 -8.72 -8.49 -8.26 -8.49177 -7.79039" />
    <path d="M 2.50508 64.69085 L 3.71763 62.49431 L 3.71763 62.47929 A 5 1.21126 289.47958 0 0 5.18289 55.14977 A 5 1.21126 289.47958 0 0 3.71763 56.51568 L 3.71763 46.31144 L 2.50508 48.50797 L 2.50508 47.90861 A 32.5 26.01545 0 0 1 2.1009 47.76299" />
    <path d="M 2.50508 47.90861 L 2.1009 48.64078 L 2.1009 46.24332" />
    <path d="M 0.11146 -2.8629 A 4 0.96901 109.47958 0 1 0.37239 -3.3696 L -8.50609 -11.05203 C -4.74 -7.76 -4.84 -7.82 -4.93967 -7.87428 C -5.04 -7.93 -5.14 -7.99 -5.24092 -8.04711 C -5.3 -8.08 -5.35 -8.11 -5.40694 -8.14394 C -5.46 -8.18 -5.52 -8.21 -5.57246 -8.24162 C -5.63 -8.27 -5.68 -8.31 -5.73747 -8.34018 C -5.79 -8.37 -5.85 -8.41 -5.90195 -8.43964 C -5.97 -8.48 -6.03 -8.52 -6.09197 -8.55607 C -6.16 -8.6 -6.22 -8.63 -6.28125 -8.67373 C -6.34 -8.71 -6.41 -8.75 -6.46975 -8.79263 C -6.53 -8.83 -6.6 -8.87 -6.65747 -8.91277 C -6.73 -8.96 -6.81 -9.01 -6.88822 -9.06289 C -6.96 -9.11 -7.04 -9.16 -7.11769 -9.21492 C -7.19 -9.27 -7.27 -9.32 -7.34585 -9.36885 C -7.42 -9.42 -7.5 -9.47 -7.57265 -9.52468" />
    <path d="M 2.50508 45.51114 L 2.1009 46.24332" />
    <path d="M 0.37239 -3.3696 L 0.9894 -4.48738 L -7.88908 -12.16976 A 35.5 28.41687 0 0 1 -7.69794 -9.61638 L -6.63591 -11.54025 A 33 26.41569 180 0 0 2.30299 -6.86695 L 1.29254 -5.03651 A 35.5 28.41687 0 0 1 0.33545 -5.38872" />
    <path d="M 2.50508 45.51114 L 2.50508 7.15174 A 32.5 26.01545 0 0 1 2.1009 7.00613" />
    <path d="M 0.9894 -4.48738 L 1.11474 -4.71442 L -7.76374 -12.39681" />
    <path d="M 2.50508 7.15174 L 2.1009 7.88391 L 2.1009 5.48645" />
    <path d="M 1.11474 -4.71442 L 1.29254 -5.03651 C 1.25 -5.05 1.21 -5.06 1.17122 -5.07665 C 1.13 -5.09 1.09 -5.1 1.05032 -5.11791 C 1.01 -5.13 0.97 -5.15 0.92987 -5.16029 C 0.89 -5.17 0.85 -5.19 0.80989 -5.20377 C 0.77 -5.22 0.73 -5.23 0.69042 -5.24836 C 0.65 -5.26 0.61 -5.28 0.5715 -5.29406 C 0.53 -5.31 0.49 -5.33 0.45317 -5.34085 C 0.41 -5.36 0.37 -5.37 0.33545 -5.38872" />
    <path d="M 2.50508 4.75427 L 2.1009 5.48645" />
    <path d="M 2.30299 -3.27076 L 2.30299 -6.86695" />
    <path d="M 2.50508 4.75427 L 2.50508 -2.43812 L 2.30299 -3.27076" />
    <path d="M 0.68626 -2.58967 A 1.75 0.42394 109.47958 0 1 1.26984 -3.19061 A 1.75 0.42394 109.47958 0 1 0.10269 0.10905 A 1.75 0.42394 109.47958 0 1 0.68626 -2.58967 Z" />
    <path d="M 3.51554 58.81468 A 1.75 0.42394 109.47958 0 1 4.09911 58.21374 A 1.75 0.42394 109.47958 0 1 2.93196 61.5134 A 1.75 0.42394 109.47958 0 1 3.51554 58.81468 Z" />
    <path d="M 1.69672 25.9977 A 34.5 27.6164 0 0 1 0.51754 25.55916 L 0.51754 27.95662" />
    <path d="M -15.09927 50.43497 L -15.01104 50.69893 L -14.92184 50.96162 L -14.83169 51.22303 L -14.74058 51.48314 L -14.64851 51.74196 L -14.5555 51.99947 L -14.46154 52.25567 L -14.36663 52.51055 L -14.27078 52.76409 L -14.17399 53.0163 L -14.07626 53.26715 L -13.97761 53.51666 L -13.87802 53.7648 L -13.7775 54.01158 L -9.26722 55.60694" />
    <path d="M -9.75286 58.27938 A 34.5 27.6164 0 0 1 -13.7775 54.01158" />
    <path d="M -9.75286 58.27938 L -9.51616 58.34072 L -9.27689 58.40348 L -9.0351 58.46767 L -8.7908 58.53328 L -8.54401 58.6003 L -8.29477 58.66872 L -8.0431 58.73854 L -7.78902 58.80974 L -7.53256 58.88234 L -7.27374 58.9563 L -7.0126 59.03164 L -6.74915 59.10833 L -6.48343 59.18638 L -6.21546 59.26577 L -6.48343 58.99026 L -6.74915 58.70911 L -7.0126 58.42233 L -7.27374 58.12996 L -7.53256 57.83203 L -7.78902 57.52856 L -8.0431 57.21959 L -8.29477 56.90515 L -8.54401 56.58527 L -8.7908 56.25999 L -9.0351 55.92933 L -9.27689 55.59333 L -9.51616 55.25203 L -9.75286 54.90545 A 34.5 27.6164 0 0 1 -13.7775 50.63765 L -13.87802 50.62009 L -13.97761 50.603 L -14.07626 50.58638 L -14.17399 50.57024 L -14.27078 50.55458 L -14.36663 50.53938 L -14.46154 50.52466 L -14.5555 50.51042 L -14.64851 50.49665 L -14.74058 50.48336 L -14.83169 50.47055 L -14.92184 50.45821 L -15.01104 50.44635 L -15.09927 50.43497" />
    <path d="M 27.56438 19.29584 A 29.5 23.61402 180 0 0 27.55692 19.2932" />
    <path d="M 16.62082 17.29408 A 29.5 23.61402 180 0 0 2.50508 19.75135" />
    <path d="M 2.34925 45.79343 A 29.5 23.61402 180 0 0 3.71763 46.31144" />
    <path d="M 12.18777 13.26957 C 12.22 13.24 12.25 13.22 12.28238 13.19517 C 12.31 13.17 12.35 13.15 12.38081 13.12256 C 12.41 13.1 12.45 13.08 12.48283 13.05179 C 12.52 13.03 12.55 13.01 12.58821 12.98287 C 12.62 12.96 12.66 12.94 12.69674 12.91582 C 12.73 12.89 12.77 12.87 12.80821 12.85067 C 12.85 12.83 12.88 12.81 12.92242 12.78743 C 12.96 12.77 13 12.75 13.03918 12.72611 C 13.08 12.71 13.12 12.69 13.1583 12.6667 C 13.2 12.65 13.24 12.63 13.2796 12.60922 C 13.32 12.59 13.36 12.57 13.40292 12.55366 C 13.44 12.54 13.49 12.52 13.52809 12.50002 C 13.57 12.48 13.61 12.47 13.65495 12.44829 C 13.7 12.43 13.74 12.41 13.78336 12.39846 C 13.83 12.38 13.87 12.37 13.91315 12.35051 C 13.96 12.33 14 12.32 14.0442 12.30444 C 14.08 12.29 14.13 12.28 14.16669 12.26338 C 14.21 12.25 14.25 12.24 14.29015 12.22386 C 14.33 12.21 14.37 12.2 14.41452 12.18587 C 14.46 12.17 14.5 12.16 14.53971 12.14937 C 14.58 12.14 14.62 12.13 14.66567 12.11435 C 14.71 12.1 14.75 12.09 14.79233 12.08079 C 14.83 12.07 14.88 12.06 14.91964 12.04866 C 14.96 12.04 15 12.03 15.04754 12.01794 C 15.09 12.01 15.13 12 15.17598 11.98862 C 15.22 11.98 15.26 11.97 15.30491 11.96066 C 15.35 11.95 15.39 11.94 15.43429 11.93405 C 15.48 11.93 15.52 11.92 15.56409 11.90877 C 15.74 11.88 15.91 11.85 16.08676 11.8204 C 20.04 11.28 23.98 12.08 27.56438 13.3172" />
    <path d="M 13.13945 16.06266 C 13.1 16.05 13.05 16.03 13.00831 16.01489 C 12.97 16 12.92 15.98 12.88009 15.96526 C 12.84 15.95 12.8 15.93 12.75506 15.91369 C 12.71 15.9 12.67 15.88 12.63349 15.86009 C 12.59 15.84 12.55 15.82 12.51568 15.80436 C 12.48 15.79 12.44 15.77 12.40191 15.74643 C 12.36 15.73 12.33 15.71 12.2925 15.6862 C 12.26 15.67 12.22 15.64 12.18777 15.62357" />
    <path d="M 29.58529 -24.52255 L 30.77437 -24.10196" />
    <path d="M 12.18777 13.26957 A 5 1.21126 289.47958 0 0 12.18777 15.62357" />
    <path d="M -7.54524 -4.71541 A 35.5 28.41687 0 0 1 -19.859 -26.23389 L -19.859 -27.43262 A 35.5 28.41687 360 0 1 8.08838 -55.19893" />
    <path d="M 2.50508 0.91643 A 32.5 26.01545 0 0 1 28.77692 0.91643" />
    <path d="M 28.77692 -50.02966 A 32.5 26.01545 180 0 0 -16.859 -26.23389 A 32.5 26.01545 180 0 0 -15.22154 -18.08028" />
    <path d="M 28.77692 -42.83727 L 28.77692 -40.43981" />
    <path d="M 28.77692 -2.0804 L 28.77692 0.31706" />
    <path d="M 29.18111 -2.81258 L 30.37019 -2.39198" />
    <path d="M 28.77692 -2.0804 L 29.96601 -1.6598" />
    <path d="M 23.41137 -59.20352 L 18.10392 -59.25617" />
    <path d="M 29.18111 -43.56945 L 30.37019 -43.14885" />
    <path d="M 28.77692 -42.83727 L 29.96601 -42.41667" />
    <path d="M 18.644 -57.3349 L 19.70603 -59.25877 L 18.87584 -59.05269 L 18.04387 -58.83314 L 17.21058 -58.60024 L 16.37641 -58.35411 L 15.54184 -58.09489 L 14.70732 -57.82273 L 13.87332 -57.53777 L 13.0403 -57.24018 L 12.20871 -56.93011 L 11.37902 -56.60775 L 10.55168 -56.27326 L 9.72716 -55.92683 L 8.90591 -55.56866 L 8.08838 -55.19893" />
    <path d="M 19.70603 -59.25877 A 35.5 28.41687 0 0 1 28.28242 -57.58294" />
    <path d="M 6.81109 -52.88512 A 33 26.41569 180 0 0 -15.46526 -18.61283 A 33 26.41569 180 0 0 -13.81424 -15.52224 L -13.41971 -15.14732 L -13.00575 -14.78546 L -12.57263 -14.43689 L -12.12066 -14.10186 L -11.65012 -13.78057 L -11.16134 -13.47326 L -10.65464 -13.18012 L -10.13036 -12.90135 L -9.58884 -12.63713 L -9.03047 -12.38765 L -8.45559 -12.15307 L -7.86461 -11.93355 L -7.25792 -11.72923 L -6.63591 -11.54025" />
    <path d="M 28.97901 -51.59448 A 33 26.41569 180 0 0 6.81109 -52.88512" />
    <path d="M 0.91182 25.71062 L 0.91182 27.24238" />
    <path d="M -6.04311 -3.42466 L -8.7742 -5.77144 C -7.58 -4.75 -7.59 -4.76 -7.60201 -4.77289 C -7.61 -4.78 -7.62 -4.8 -7.63068 -4.80667 C -7.64 -4.82 -7.65 -4.83 -7.65863 -4.8403 C -7.67 -4.85 -7.68 -4.86 -7.68586 -4.87376 C -7.69 -4.88 -7.7 -4.9 -7.71237 -4.90703 C -7.72 -4.92 -7.73 -4.93 -7.73814 -4.9401 C -7.75 -4.95 -7.75 -4.96 -7.76319 -4.97296 C -7.77 -4.98 -7.78 -4.99 -7.7875 -5.00559 C -7.8 -5.02 -7.8 -5.03 -7.8111 -5.03799 C -7.82 -5.05 -7.83 -5.06 -7.83397 -5.07014 C -7.84 -5.08 -7.85 -5.09 -7.85614 -5.10205 C -7.86 -5.11 -7.87 -5.12 -7.8776 -5.13369 C -7.88 -5.14 -7.89 -5.15 -7.89838 -5.16508 C -7.91 -5.18 -7.91 -5.19 -7.91848 -5.19621 C -7.93 -5.22 -7.94 -5.24 -7.95672 -5.25766 C -7.97 -5.28 -7.98 -5.3 -7.99242 -5.31803 C -8 -5.34 -8.02 -5.36 -8.02574 -5.37733 C -8.04 -5.4 -8.05 -5.42 -8.05679 -5.43556 C -8.07 -5.45 -8.08 -5.47 -8.08572 -5.49274 C -8.1 -5.51 -8.1 -5.53 -8.11267 -5.54891 C -8.12 -5.57 -8.13 -5.59 -8.13777 -5.60408 C -8.15 -5.62 -8.15 -5.64 -8.16117 -5.65829 C -8.17 -5.68 -8.18 -5.69 -8.18297 -5.71159 C -8.19 -5.73 -8.2 -5.74 -8.2018 -5.76003 C -8.21 -5.78 -8.21 -5.79 -8.21948 -5.80781 C -8.23 -5.82 -8.23 -5.84 -8.23609 -5.85497 C -8.24 -5.87 -8.25 -5.89 -8.25172 -5.90153 C -8.27 -5.96 -8.29 -6.02 -8.30562 -6.08256 C -8.34 -6.2 -8.36 -6.31 -8.38246 -6.42497 C -8.47 -6.92 -8.49 -7.36 -8.49177 -7.79039" />
    <path d="M -8.33063 -7.57443 C -8.31 -7.53 -8.3 -7.49 -8.28083 -7.44979 C -8.26 -7.41 -8.25 -7.37 -8.23057 -7.32497 C -8.21 -7.28 -8.2 -7.24 -8.17977 -7.19998 C -8.16 -7.16 -8.15 -7.12 -8.12835 -7.07482 C -8.11 -7.03 -8.09 -6.99 -8.07623 -6.94952 C -8.06 -6.91 -8.04 -6.87 -8.02332 -6.8241 C -8.01 -6.78 -7.99 -6.74 -7.96956 -6.69856 C -7.95 -6.66 -7.93 -6.61 -7.91485 -6.57293 C -7.9 -6.53 -7.88 -6.49 -7.85914 -6.44724 C -7.84 -6.41 -7.82 -6.36 -7.80235 -6.32152 C -7.78 -6.28 -7.76 -6.24 -7.74441 -6.19578 C -7.72 -6.15 -7.71 -6.11 -7.68525 -6.07006 C -7.67 -6.03 -7.65 -5.99 -7.62481 -5.9444 C -7.6 -5.9 -7.58 -5.86 -7.56304 -5.81881 C -7.54 -5.78 -7.52 -5.74 -7.49986 -5.69335 C -7.48 -5.65 -7.46 -5.61 -7.43522 -5.56805 C -7.41 -5.53 -7.39 -5.49 -7.37293 -5.45017 C -7.35 -5.41 -7.33 -5.37 -7.30926 -5.33251 C -7.29 -5.29 -7.27 -5.25 -7.24417 -5.21509 C -7.22 -5.18 -7.2 -5.14 -7.1776 -5.09796 C -7.16 -5.06 -7.13 -5.02 -7.10954 -4.98116 C -7.09 -4.94 -7.06 -4.9 -7.03993 -4.86473 C -7.02 -4.83 -6.99 -4.79 -6.96877 -4.74871 C -6.94 -4.71 -6.92 -4.67 -6.896 -4.63315 C -6.87 -4.59 -6.85 -4.56 -6.82161 -4.51809 C -6.8 -4.48 -6.77 -4.44 -6.74558 -4.40358 C -6.72 -4.37 -6.69 -4.33 -6.66788 -4.28967 C -6.64 -4.25 -6.62 -4.21 -6.58848 -4.1764 C -6.53 -4.1 -6.48 -4.03 -6.42458 -3.95198 C -6.37 -3.88 -6.31 -3.8 -6.25378 -3.73074" />
    <path d="M -3.06652 -0.03604 C -3.25 -0.25 -3.43 -0.47 -3.60899 -0.68208 C -3.7 -0.79 -3.79 -0.9 -3.88174 -1.00428 C -3.97 -1.11 -4.06 -1.22 -4.15551 -1.32592 C -4.25 -1.43 -4.34 -1.54 -4.43034 -1.64698 C -4.52 -1.75 -4.61 -1.86 -4.70623 -1.96745 C -4.8 -2.07 -4.89 -2.18 -4.98321 -2.28731 C -5.08 -2.39 -5.17 -2.5 -5.26128 -2.60657 C -5.34 -2.7 -5.43 -2.79 -5.50809 -2.88835 C -5.59 -2.98 -5.67 -3.08 -5.75577 -3.16964 C -5.84 -3.26 -5.92 -3.36 -6.00433 -3.45044 C -6.09 -3.54 -6.17 -3.64 -6.25378 -3.73074" />
    <path d="M -3.00907 0.14244 C -3.01 0.15 -3.01 0.15 -3.01256 0.15102 C -3.01 0.15 -3.01 0.16 -3.01225 0.16096 C -3.01 0.16 -3.01 0.17 -3.00798 0.17231 C -3.01 0.18 -3 0.18 -2.99955 0.18512 C -2.96 0.24 -2.92 0.29 -2.88094 0.33739 C -2.84 0.39 -2.8 0.44 -2.76206 0.49034 C -2.72 0.54 -2.68 0.59 -2.64291 0.64391 C -2.6 0.7 -2.56 0.75 -2.52352 0.79807 C -2.48 0.85 -2.44 0.9 -2.40391 0.95278 C -2.36 1 -2.32 1.06 -2.28409 1.108 C -2.24 1.16 -2.2 1.21 -2.16408 1.26371 C -2.12 1.32 -2.08 1.37 -2.0439 1.41986 C -2 1.47 -1.96 1.52 -1.92354 1.57644 C -1.88 1.63 -1.84 1.68 -1.80304 1.73341 C -1.76 1.79 -1.72 1.84 -1.68239 1.89075 C -1.64 1.94 -1.6 2 -1.56161 2.04844 C -1.52 2.1 -1.48 2.15 -1.4407 2.20646 C -1.4 2.26 -1.36 2.31 -1.31968 2.36479 C -1.28 2.42 -1.24 2.47 -1.19855 2.52342 C -1.16 2.58 -1.12 2.63 -1.07731 2.68234" />
    <path d="M -3.11875 -0.58943 C -3.12 -0.55 -3.12 -0.51 -3.11712 -0.47691 C -3.12 -0.44 -3.11 -0.4 -3.11222 -0.37052 C -3.11 -0.34 -3.11 -0.3 -3.10407 -0.27047 C -3.1 -0.24 -3.1 -0.21 -3.09268 -0.17696 C -3.09 -0.15 -3.08 -0.12 -3.07806 -0.09017 C -3.07 -0.06 -3.07 -0.04 -3.06025 -0.01028 C -3.05 0.02 -3.05 0.04 -3.03926 0.06255 C -3.03 0.09 -3.02 0.11 -3.01515 0.12816 C -3.01 0.13 -3.01 0.14 -3.00907 0.14244" />
    <path d="M -3.00907 -1.71868 C -3.01 -1.71 -3.01 -1.69 -3.01515 -1.68236 C -3.02 -1.63 -3.03 -1.58 -3.03926 -1.52939 C -3.05 -1.48 -3.05 -1.43 -3.06025 -1.38054 C -3.07 -1.33 -3.07 -1.28 -3.07806 -1.2361 C -3.08 -1.19 -3.09 -1.14 -3.09268 -1.09636 C -3.1 -1.05 -3.1 -1.01 -3.10407 -0.96157 C -3.11 -0.92 -3.11 -0.87 -3.11222 -0.83199 C -3.11 -0.79 -3.12 -0.75 -3.11712 -0.70786 C -3.12 -0.67 -3.12 -0.63 -3.11875 -0.58943" />
    <path d="M -2.73967 -3.01745 C -2.75 -3 -2.77 -2.97 -2.77984 -2.94937 C -2.79 -2.93 -2.8 -2.9 -2.81641 -2.87882 C -2.83 -2.85 -2.84 -2.83 -2.84949 -2.80598 C -2.86 -2.78 -2.87 -2.76 -2.87918 -2.73103 C -2.89 -2.71 -2.9 -2.68 -2.90559 -2.65412 C -2.91 -2.63 -2.92 -2.6 -2.92883 -2.57542 C -2.94 -2.55 -2.94 -2.52 -2.949 -2.49508 C -2.96 -2.47 -2.96 -2.44 -2.9662 -2.41324 C -2.97 -2.39 -2.98 -2.36 -2.98056 -2.33005 C -2.98 -2.3 -2.99 -2.27 -2.99215 -2.24561 C -3 -2.22 -3 -2.19 -3.00109 -2.16005 C -3 -2.13 -3.01 -2.1 -3.00746 -2.07348 C -3.01 -2.04 -3.01 -2.02 -3.01136 -1.98597 C -3.01 -1.96 -3.01 -1.93 -3.01288 -1.89762 C -3.01 -1.87 -3.01 -1.84 -3.01209 -1.80851 C -3.01 -1.78 -3.01 -1.75 -3.00907 -1.71868" />
    <path d="M -2.73967 -3.01745 C -2.88 -3.19 -3.03 -3.36 -3.16973 -3.53341 C -3.31 -3.71 -3.46 -3.88 -3.60226 -4.04803 C -3.75 -4.22 -3.89 -4.39 -4.03735 -4.56125 C -4.18 -4.73 -4.33 -4.9 -4.4751 -5.07302 C -4.62 -5.24 -4.77 -5.41 -4.91556 -5.58329 C -5.06 -5.75 -5.21 -5.92 -5.3588 -6.09201 C -5.51 -6.26 -5.66 -6.43 -5.80486 -6.59914 C -5.95 -6.77 -6.1 -6.94 -6.25378 -7.10467 C -6.28 -7.11 -6.31 -7.12 -6.33818 -7.12788 C -6.37 -7.14 -6.39 -7.14 -6.42093 -7.15039 C -6.45 -7.16 -6.48 -7.17 -6.50202 -7.17221 C -6.53 -7.18 -6.56 -7.19 -6.58148 -7.19333 C -6.61 -7.2 -6.63 -7.21 -6.6593 -7.21377 C -6.68 -7.22 -6.71 -7.23 -6.7355 -7.23353 C -6.76 -7.24 -6.79 -7.25 -6.81011 -7.25263 C -6.83 -7.26 -6.86 -7.27 -6.88314 -7.27108 C -6.91 -7.28 -6.93 -7.28 -6.95461 -7.2889 C -6.98 -7.29 -7 -7.3 -7.02454 -7.30608 C -7.05 -7.31 -7.07 -7.32 -7.09297 -7.32265 C -7.12 -7.33 -7.14 -7.33 -7.15993 -7.33863 C -7.18 -7.34 -7.2 -7.35 -7.22544 -7.35402 C -7.25 -7.36 -7.27 -7.36 -7.28953 -7.36885 C -7.31 -7.37 -7.33 -7.38 -7.35225 -7.38312 C -7.37 -7.39 -7.39 -7.39 -7.41363 -7.39687 C -7.45 -7.4 -7.48 -7.41 -7.51875 -7.41987 C -7.55 -7.43 -7.59 -7.43 -7.62007 -7.44137 C -7.65 -7.45 -7.69 -7.46 -7.71782 -7.46149 C -7.75 -7.47 -7.78 -7.47 -7.81229 -7.48034 C -7.84 -7.49 -7.87 -7.49 -7.90375 -7.49804 C -7.93 -7.5 -7.96 -7.51 -7.99251 -7.51471 C -8.02 -7.52 -8.05 -7.53 -8.07888 -7.53049 C -8.11 -7.54 -8.14 -7.54 -8.16319 -7.54551 C -8.19 -7.55 -8.22 -7.56 -8.24762 -7.56022 C -8.28 -7.57 -8.3 -7.57 -8.33063 -7.57443 L -5.9103 -6.71832" />
    <path d="M -0.37572 -5.66859 C -0.53 -5.73 -0.69 -5.79 -0.83962 -5.85976 C -0.99 -5.92 -1.15 -5.99 -1.30218 -6.05732 C -1.47 -6.13 -1.64 -6.2 -1.80231 -6.27895 C -1.97 -6.35 -2.13 -6.43 -2.30038 -6.50815 C -2.48 -6.59 -2.67 -6.68 -2.8499 -6.77113 C -3.03 -6.86 -3.21 -6.95 -3.39619 -7.04343 C -3.5 -7.1 -3.6 -7.15 -3.70834 -7.20402 C -3.81 -7.26 -3.92 -7.31 -4.01923 -7.36767 C -4.12 -7.42 -4.23 -7.48 -4.32879 -7.53436 C -4.43 -7.59 -4.53 -7.65 -4.63692 -7.70409" />
    <path d="M -13.49282 51.0032 L -15.09927 50.43497" />
    <path d="M -15.09153 -13.20843 A 35.5 28.41687 360 0 1 -19.859 -27.43262" />
    <path d="M -15.09153 -13.20843 L -14.6653 -12.86931 L -14.22232 -12.54225 L -13.76283 -12.22741 L -13.2871 -11.92499 L -12.79537 -11.63513 L -12.28792 -11.35802 L -11.76504 -11.09379 L -11.22701 -10.84259 L -10.67413 -10.60456 L -10.1067 -10.37984 L -9.52505 -10.16855 L -8.92948 -9.97081 L -8.32033 -9.78671 L -7.69794 -9.61638" />
    <path d="M -15.09153 -13.20843 L -13.81424 -15.52224" />
    <path d="M -2.9339 -2.55644 L -6.25378 -3.73074" />
    <path d="M -10.03972 60.53517 L -10.78409 59.87097" />
    <path d="M -18.859 -19.53663 L -18.859 40.89508" />
    <path d="M 13.13945 16.06266 L 26.09911 20.64672" />
    <path d="M 3.71763 54.63148 L 5.18289 55.14977" />
    <path d="M -6.04311 -3.42466 C -6.04 -3.42 -6.04 -3.42 -6.03283 -3.41577 C -6.03 -3.41 -6.03 -3.41 -6.02177 -3.40608 C -6.02 -3.4 -6.01 -3.4 -6.00993 -3.39557 C -6.01 -3.39 -6 -3.39 -5.99732 -3.38424 C -5.99 -3.38 -5.99 -3.38 -5.98395 -3.37208 C -5.98 -3.37 -5.97 -3.36 -5.96981 -3.35907 C -5.96 -3.35 -5.96 -3.35 -5.95492 -3.34521 C -5.95 -3.34 -5.94 -3.34 -5.93927 -3.3305 C -5.93 -3.32 -5.92 -3.31 -5.91053 -3.30308 C -5.9 -3.29 -5.89 -3.28 -5.8796 -3.27305 C -5.87 -3.26 -5.86 -3.25 -5.84656 -3.24043 C -5.84 -3.23 -5.82 -3.22 -5.81148 -3.20527 C -5.8 -3.19 -5.79 -3.18 -5.77445 -3.16761 C -5.76 -3.15 -5.75 -3.14 -5.73554 -3.12748 C -5.72 -3.11 -5.71 -3.1 -5.69483 -3.08496 C -5.68 -3.07 -5.67 -3.06 -5.6524 -3.04009 C -5.64 -3.02 -5.62 -3.01 -5.60834 -2.99296 C -5.59 -2.98 -5.58 -2.96 -5.56272 -2.94363 C -5.55 -2.93 -5.53 -2.91 -5.51564 -2.89218 C -5.5 -2.87 -5.48 -2.86 -5.46718 -2.83871 C -5.45 -2.82 -5.43 -2.8 -5.41742 -2.78331 C -5.4 -2.76 -5.38 -2.75 -5.36646 -2.72607 C -5.35 -2.71 -5.33 -2.69 -5.31438 -2.66712 C -5.3 -2.65 -5.28 -2.63 -5.26128 -2.60657" />
</svg>