<svg version="1.1" xmlns="http://www.w3.org/2000/svg" viewBox="-92.38055744749565 -146.53039121132775 192.76827051966052 289.778355783205" fill="none" stroke="black" stroke-width="0.6%" vector-effect="non-scaling-stroke">
    <path d="M 31.40702 111.7643 L 31.40702 86.50788 L 27.46093 82.14266 L 27.46093 76.24949 L 22.63792 70.91422 L 22.63792 72.59798" />
    <path d="M 42.3684 123.88991 A 12.5 6.7458 180 0 0 47.84909 121.0695" />
    <path d="M 42.3684 123.88991 L 42.3684 98.63349" />
    <path d="M 46.3145 102.99871 L 42.3684 98.63349" />
    <path d="M 47.84909 102.55225 A 21.5 11.60277 360 0 1 46.3145 102.99871 L 46.3145 97.10554" />
    <path d="M 51.1375 102.44081 L 46.3145 97.10554" />
    <path d="M 23.88003 72.28826 A 32.5 17.53907 180 0 0 22.63792 72.59798" />
    <path d="M 25.92633 76.23567 L 22.63792 72.59798" />
    <path d="M 27.17224 75.93014 A 25 13.49159 180 0 0 25.92633 76.23567 L 25.92633 99.80832 A 25 13.49159 360 0 1 31.40702 98.77054" />
    <path d="M 47.84909 100.48689 A 25 13.49159 180 0 0 49.06215 100.14503" />
    <path d="M 51.1375 104.12457 L 47.84909 100.48689 L 47.84909 124.05955" />
    <path d="M 42.3684 123.88991 L 31.40702 111.7643" />
    <path d="M 51.1375 102.44081 L 51.1375 104.12457" />
    <path d="M 51.1375 127.69723 L 47.84909 124.05955" />
    <path d="M 51.1375 127.69723 L 51.1375 129.38099" />
    <path d="M 52.01441 130.35104 L 51.1375 129.38099" />
    <path d="M 52.01441 130.35104 L 52.45287 129.1523" />
    <path d="M 64.29116 142.24796 L 52.45287 129.1523" />
    <path d="M 64.29116 132.98728 L 64.29116 142.24796 A 62.5 33.72898 180 0 0 99.38771 111.93394" />
    <path d="M 64.29116 132.98728 L 52.01441 119.40659 A 34.5 18.6184 180 0 0 71.38771 102.67325" />
    <path d="M 52.01441 43.63733 L 52.01441 119.40659" />
    <path d="M 64.29116 57.21802 L 52.01441 43.63733" />
    <path d="M 64.29116 47.95733 L 64.29116 57.21802 A 62.5 33.72898 180 0 0 99.38771 26.90399" />
    <path d="M 64.29116 47.95733 L 52.45287 34.86167 A 35.5 19.15806 180 0 0 72.38771 17.6433 L 72.38771 15.95954 A 35.5 19.15806 180 0 0 71.12656 10.89844" />
    <path d="M 52.45287 34.86167 L 52.45287 33.17791 A 35.5 19.15806 180 0 0 72.38771 15.95954" />
    <path d="M 52.45287 33.17791 L 51.35673 31.96535 A 33 17.8089 180 0 0 69.46121 18.81351 A 33 17.8089 180 0 0 69.79474 14.62369" />
    <path d="M 51.1375 33.4066 L 51.35673 31.96535" />
    <path d="M 51.1375 30.03907 L 51.1375 33.4066" />
    <path d="M 51.1375 30.03907 C 51.27 29.92 51.41 29.81 51.54013 29.69405 C 51.67 29.58 51.81 29.46 51.94286 29.34937 C 52.08 29.23 52.21 29.12 52.34571 29.00499 C 52.48 28.89 52.61 28.78 52.74864 28.66091 C 52.88 28.55 53.02 28.43 53.15167 28.31708 C 53.29 28.2 53.42 28.09 53.55478 27.9735 C 53.69 27.86 53.82 27.74 53.95796 27.63015 C 54.09 27.52 54.23 27.4 54.36122 27.287 C 54.63 27.06 54.9 26.83 55.16792 26.60129 C 55.44 26.37 55.71 26.14 55.97484 25.91625 C 56.24 25.69 56.51 25.46 56.78197 25.23181 C 57.05 25 57.32 24.78 57.58927 24.54789 A 20 10.79327 180 0 0 62.28518 21.24507 A 20 10.79327 180 0 0 63.2787 19.9625 L 63.2787 -28.86658 L 78.57625 -52.84967 A 20 10.79327 180 0 0 79.66527 -56.36266 L 79.66527 -7.53358" />
    <path d="M 57.58927 -24.28119 L 57.58927 24.54789" />
    <path d="M 16.18615 -70.08183 L 57.58927 -24.28119 A 20 10.79327 180 0 0 63.2787 -28.86658" />
    <path d="M 16.18615 -70.08183 L 16.18615 -21.25275" />
    <path d="M 22.63792 -1.48752 C 22.5 -1.9 22.37 -2.31 22.2353 -2.72331 C 22.1 -3.14 21.97 -3.55 21.83256 -3.95902 C 21.56 -4.78 21.3 -5.61 21.02678 -6.43021 C 20.76 -7.25 20.49 -8.08 20.22065 -8.90112 C 19.95 -9.72 19.68 -10.55 19.41421 -11.3718 C 19.15 -12.2 18.88 -13.02 18.60751 -13.84228 C 18.34 -14.67 18.07 -15.49 17.80058 -16.31259 C 17.53 -17.14 17.26 -17.96 16.99345 -18.78274 C 16.72 -19.61 16.46 -20.43 16.18615 -21.25275" />
    <path d="M 22.63792 -1.48752 L 22.63792 1.88001 L 22.41869 -0.04627 L 21.32256 -1.25883" />
    <path d="M 21.32256 0.42493 L 21.32256 -1.25883" />
    <path d="M 21.32256 0.42493 L 9.48427 -12.67073 A 62.5 33.72898 360 0 1 18.36945 -14.57116" />
    <path d="M 9.48427 -3.41004 L 9.48427 -12.67073" />
    <path d="M 21.76101 10.17065 L 9.48427 -3.41004" />
    <path d="M 21.76101 10.17065 L 21.76101 85.93991 L 9.48427 72.35922 A 62.5 33.72898 360 0 1 21.76101 69.94705" />
    <path d="M 9.48427 81.61991 L 9.48427 72.35922" />
    <path d="M 21.32256 94.71557 L 9.48427 81.61991" />
    <path d="M 21.76101 96.88435 L 21.32256 94.71557" />
    <path d="M 22.63792 97.8544 L 21.76101 96.88435" />
    <path d="M 22.63792 96.17064 L 22.63792 97.8544 A 32.5 17.53907 360 0 1 23.88003 97.54468" />
    <path d="M 25.92633 99.80832 L 22.63792 96.17064" />
    <path d="M 69.17774 19.63377 A 32.5 17.53907 180 0 0 69.38771 17.6433" />
    <path d="M 56.83844 28.12127 A 32.5 17.53907 360 0 1 51.1375 30.03907" />
    <path d="M 68.89561 17.31637 A 32.5 17.53907 360 0 1 56.83844 28.12127 L 63.2787 19.9625" />
    <path d="M 33.4958 -72.54884 A 20 10.79327 180 0 0 16.18615 -70.08183" />
    <path d="M 35.9173 -72.18902 L 33.4958 -72.54884" />
    <path d="M 66.17487 -66.56823 L 35.9173 -72.18902" />
    <path d="M 67.34945 -66.32751 L 66.17487 -66.56823" />
    <path d="M 79.66527 -56.36266 A 20 10.79327 180 0 0 67.34945 -66.32751" />
    <path d="M 52.01441 130.35104 A 34.5 18.6184 180 0 0 53.232 130.01419" />
    <path d="M 22.60773 -1.58021 A 35.5 19.15806 180 0 0 21.32256 -1.25883" />
    <path d="M 22.63792 -0.10344 A 33 17.8089 180 0 0 22.41869 -0.04627" />
    <path d="M 63.2787 19.9625 L 64.19865 18.52023 L 77.6563 -2.57831 L 78.57625 -4.02059 L 78.57625 -52.84967" />
    <path d="M 78.57625 -4.02059 A 20 10.79327 180 0 0 79.66527 -7.53358" />
    <path d="M 71.38771 74.54853 A 62.5 33.72898 360 0 1 99.38771 102.67325 L 99.38771 111.93394" />
    <path d="M 99.38771 102.67325 A 62.5 33.72898 360 0 1 64.29116 132.98728" />
    <path d="M 79.63717 -6.96166 A 62.5 33.72898 360 0 1 99.38771 17.6433 L 99.38771 26.90399" />
    <path d="M 99.38771 17.6433 A 62.5 33.72898 360 0 1 64.29116 47.95733" />
    <path d="M -91.38056 39.18027 A 62.5 33.72898 180 0 0 21.76101 58.9476" />
    <path d="M 5.61944 1.79487 A 62.5 33.72898 360 0 1 21.71009 10.11432" />
    <path d="M 21.76101 49.68691 A 62.5 33.72898 360 0 1 -91.38056 29.91958 L -91.38056 39.18027" />
    <path d="M -91.38056 29.91958 A 62.5 33.72898 360 0 1 -63.38056 1.79487" />
    <path d="M 5.61944 29.91958 A 34.5 18.6184 360 0 1 -63.38056 29.91958" />
    <path d="M -91.38056 -45.84968 A 62.5 33.72898 180 0 0 16.18615 -22.48005" />
    <path d="M 13.8689 -79.71532 A 62.5 33.72898 360 0 1 24.70174 -72.47368" />
    <path d="M 16.18615 -31.74073 A 62.5 33.72898 360 0 1 -91.38056 -55.11037 L -91.38056 -45.84968" />
    <path d="M -91.38056 -55.11037 A 62.5 33.72898 360 0 1 -71.65812 -79.7011" />
    <path d="M -58.302 -44.3898 A 35.5 19.15806 180 0 0 6.61944 -55.11037 L 6.61944 -56.79413 A 35.5 19.15806 180 0 0 5.35829 -61.85522" />
    <path d="M -55.00587 -43.82289 A 35.5 19.15806 180 0 0 6.61944 -56.79413" />
    <path d="M -51.75768 -43.95924 A 33 17.8089 180 0 0 3.69294 -53.94015 A 33 17.8089 180 0 0 4.02647 -58.12998" />
    <path d="M 3.40947 -53.11989 A 32.5 17.53907 180 0 0 3.61944 -55.11037" />
    <path d="M -39.45865 -41.89384 A 32.5 17.53907 360 0 1 -49.02074 -44.71251" />
    <path d="M -28.2001 -40.94266 A 32.5 17.53907 360 0 1 -39.45865 -41.89384" />
    <path d="M -26.54145 -40.9843 A 32.5 17.53907 360 0 1 -28.2001 -40.94266 L -27.91014 -46.09859 L -27.91014 -94.92767 L -25.48864 -94.56785 A 20 10.79327 180 0 0 -2.48957 -101.62024 L 12.80798 -125.60333 A 20 10.79327 180 0 0 13.897 -129.11633 L 13.897 -80.28725" />
    <path d="M -8.92983 -44.6324 A 32.5 17.53907 360 0 1 -26.54145 -40.9843 L -25.48864 -45.73877 L -25.48864 -94.56785" />
    <path d="M 3.12734 -55.4373 A 32.5 17.53907 360 0 1 -8.92983 -44.6324 L -2.48957 -52.79117" />
    <path d="M -71.65812 -61.92495 A 20 10.79327 180 0 0 -71.05502 -59.29439" />
    <path d="M -43.93576 -49.07558 L -43.03893 -48.90898 L -27.91014 -46.09859 L -25.48864 -45.73877 A 20 10.79327 180 0 0 -3.48309 -51.50859 C -3.5 -51.49 -3.51 -51.48 -3.52299 -51.46491 C -3.54 -51.45 -3.55 -51.44 -3.55816 -51.42591 C -3.57 -51.41 -3.58 -51.4 -3.58839 -51.39192 C -3.6 -51.38 -3.61 -51.37 -3.61349 -51.36328 C -3.62 -51.35 -3.63 -51.35 -3.63327 -51.34034 C -3.64 -51.33 -3.64 -51.33 -3.64757 -51.32348 C -3.65 -51.32 -3.65 -51.32 -3.65624 -51.31308 C -3.66 -51.31 -3.66 -51.31 -3.65915 -51.30953 C -3.66 -51.31 -3.66 -51.31 -3.65836 -51.31052 C -3.66 -51.31 -3.66 -51.31 -3.65598 -51.31352" />
    <path d="M -3.48309 -51.50859 A 20 10.79327 180 0 0 -2.48957 -52.79117 L -2.48957 -101.62024" />
    <path d="M -2.48957 -52.79117 L -1.56962 -54.23344 L 11.88803 -75.33198 L 12.80798 -76.77426 L 12.80798 -125.60333" />
    <path d="M 12.80798 -76.77426 A 20 10.79327 180 0 0 13.897 -80.28725" />
    <path d="M 0.4066 -139.3219 L -29.85097 -144.94269 L -32.27247 -145.30251 A 20 10.79327 180 0 0 -55.27154 -138.25011 L -70.5691 -114.26702 A 20 10.79327 180 0 0 -71.65812 -110.75403 L -71.65812 -61.92495" />
    <path d="M -59.3423 -80.70802 L -59.3423 -100.78918 L -58.16771 -100.54846 L -27.91014 -94.92767" />
    <path d="M -71.65812 -110.75403 A 20 10.79327 180 0 0 -59.3423 -100.78918" />
    <path d="M -58.16771 -82.5495 L -58.16771 -100.54846" />
    <path d="M -43.03893 -91.00302 A 15 11.94059 32.53166 0 0 -55.68534 -86.44129" />
    <path d="M -30.39251 -70.30832 A 15 11.94059 32.53166 0 0 -43.03893 -91.00302" />
    <path d="M 13.897 -129.11633 A 20 10.79327 180 0 0 1.58118 -139.08118 L 0.4066 -139.3219" />
    <path d="M -56.87182 -69.31618 A 15 11.94059 212.53166 0 1 -44.2254 -48.62149 L -30.39251 -70.30832" />
    <path d="M -44.2254 -48.62149 A 15 11.94059 212.53166 0 1 -69.51824 -64.75445 L -55.68534 -86.44129" />
    <path d="M -69.51824 -64.75445 A 15 11.94059 212.53166 0 1 -56.87182 -69.31618" />
    <path d="M 69.38771 15.82634 L 69.38771 17.6433" />
    <path d="M 62.11229 21.44015 C 62.11 21.44 62.11 21.44 62.10991 21.44315 C 62.11 21.44 62.11 21.44 62.10912 21.44414 C 62.11 21.44 62.11 21.44 62.11203 21.44059 C 62.11 21.44 62.12 21.43 62.1207 21.43018 C 62.12 21.43 62.13 21.42 62.135 21.41332 C 62.14 21.41 62.15 21.4 62.15478 21.39039 C 62.16 21.38 62.17 21.37 62.17987 21.36175 C 62.19 21.35 62.2 21.34 62.21011 21.32776 C 62.22 21.32 62.23 21.3 62.24528 21.28876 C 62.26 21.27 62.27 21.26 62.28518 21.24507" />
    <path d="M 71.38771 55.0287 L 71.38771 102.67325" />
    <path d="M 68.89561 17.31637 C 68.95 17.16 69 17 69.05291 16.83599 C 69.11 16.68 69.16 16.52 69.21121 16.35639 C 69.26 16.2 69.32 16.04 69.37051 15.87779 C 69.42 15.72 69.48 15.56 69.53079 15.4004 C 69.58 15.24 69.64 15.08 69.69206 14.92444 C 69.75 14.77 69.8 14.61 69.85428 14.45015 C 69.91 14.29 69.96 14.13 70.01747 13.97774 C 70.07 13.82 70.13 13.66 70.18159 13.50745 C 70.21 13.42 70.24 13.33 70.27292 13.24785 C 70.3 13.16 70.33 13.08 70.36454 12.98901 C 70.4 12.9 70.43 12.82 70.45644 12.73096 C 70.49 12.65 70.52 12.56 70.54862 12.47374 C 70.58 12.39 70.61 12.3 70.64107 12.21737 C 70.67 12.13 70.7 12.05 70.7338 11.9619 C 70.76 11.88 70.8 11.79 70.8268 11.70735 C 70.86 11.62 70.89 11.54 70.92008 11.45375 C 70.95 11.37 70.98 11.29 71.01362 11.20113 C 71.04 11.12 71.08 11.03 71.10744 10.94951 C 71.14 10.87 71.17 10.78 71.20152 10.69893 C 71.23 10.62 71.26 10.53 71.29588 10.4494 C 71.33 10.37 71.36 10.28 71.39051 10.20094 C 71.42 10.12 71.45 10.04 71.48541 9.95358 C 71.52 9.87 71.55 9.79 71.58058 9.70732 C 71.61 9.63 71.64 9.54 71.67603 9.4622 C 71.71 9.38 71.74 9.3 71.77176 9.21821 C 71.8 9.14 71.84 9.06 71.86776 8.97538 C 71.93 8.81 72 8.65 72.06063 8.49321 C 72.19 8.17 72.32 7.86 72.44985 7.5431 C 72.71 6.92 72.98 6.3 73.24332 5.69997 C 74.59 2.67 76.04 -0.04 77.6563 -2.57831" />
    <path d="M -63.38056 -17.72496 L -63.38056 29.91958" />
    <path d="M 5.61944 -17.72496 L 5.61944 29.91958" />
    <path d="M 3.61944 -56.92733 L 3.61944 -55.11037" />
    <path d="M 3.12734 -55.4373 C 3.18 -55.6 3.23 -55.76 3.28464 -55.91768 C 3.34 -56.08 3.39 -56.24 3.44294 -56.39728 C 3.5 -56.56 3.55 -56.72 3.60224 -56.87588 C 3.66 -57.04 3.71 -57.19 3.76252 -57.35327 C 3.82 -57.51 3.87 -57.67 3.92379 -57.82922 C 3.98 -57.99 4.03 -58.15 4.08602 -58.30352 C 4.14 -58.46 4.19 -58.62 4.2492 -58.77593 C 4.3 -58.93 4.36 -59.09 4.41332 -59.24622 C 4.44 -59.33 4.47 -59.42 4.50465 -59.50581 C 4.54 -59.59 4.57 -59.68 4.59627 -59.76465 C 4.63 -59.85 4.66 -59.94 4.68817 -60.0227 C 4.72 -60.11 4.75 -60.19 4.78035 -60.27993 C 4.81 -60.37 4.84 -60.45 4.8728 -60.5363 C 4.9 -60.62 4.93 -60.71 4.96553 -60.79177 C 5 -60.88 5.03 -60.96 5.05853 -61.04632 C 5.09 -61.13 5.12 -61.22 5.15181 -61.29992 C 5.18 -61.38 5.21 -61.47 5.24535 -61.55254 C 5.28 -61.64 5.31 -61.72 5.33917 -61.80415 C 5.37 -61.89 5.4 -61.97 5.43325 -62.05474 C 5.46 -62.14 5.5 -62.22 5.52761 -62.30427 C 5.56 -62.39 5.59 -62.47 5.62224 -62.55272 C 5.65 -62.64 5.69 -62.72 5.71714 -62.80009 C 5.75 -62.88 5.78 -62.96 5.81231 -63.04634 C 5.84 -63.13 5.88 -63.21 5.90776 -63.29147 C 5.94 -63.37 5.97 -63.45 6.00349 -63.53546 C 6.04 -63.62 6.07 -63.7 6.0995 -63.77829 C 6.16 -63.94 6.23 -64.1 6.29236 -64.26045 C 6.42 -64.58 6.55 -64.9 6.68158 -65.21057 C 6.94 -65.84 7.21 -66.45 7.47505 -67.0537 C 8.82 -70.08 10.27 -72.79 11.88803 -75.33198" />
</svg>