<svg version="1.1" xmlns="http://www.w3.org/2000/svg" viewBox="-20.852375341420277 -61.06549615023523 54.33796543038364 129.404870628039" fill="none" stroke="black" stroke-width="0.6%" vector-effect="non-scaling-stroke">
    <path d="M 1.53197 66.50785 A 35 28.0274 360 0 1 -17.33943 50.22886 A 35 28.0274 360 0 1 -18.85237 36.14038" />
    <path d="M 29.56163 15.14345 A 35 28.0274 360 0 1 29.76328 15.21401 L 29.56163 16.77831 L 28.75502 18.24384 A 32.5 26.02545 180 0 0 28.20069 18.0531" />
    <path d="M -16.86819 51.29294 A 34.5 27.62701 180 0 0 1.73362 67.33937" />
    <path d="M 1.53197 66.50785 L 1.73362 67.33937" />
    <path d="M 1.73362 66.14146 L 1.53197 66.50785" />
    <path d="M 29.76328 15.21401 L 29.56163 15.5804 L 29.56163 0.55988" />
    <path d="M -18.85237 40.86093 A 34.5 27.62701 180 0 0 1.73362 66.14146 L 1.73362 28.40732 A 34.5 27.62701 360 0 1 0.55392 27.96952" />
    <path d="M 29.56163 -2.71104 L 29.56163 -21.27864" />
    <path d="M 28.75502 17.04593 L 28.75502 18.24384" />
    <path d="M 27.54511 19.24424 L 28.75502 17.04593" />
    <path d="M 29.15833 -23.8168 L 29.15833 -21.42098 L 30.34791 -21.00113 L 30.75122 -21.7339 L 30.75122 -24.12972 L 30.34791 -23.39695 L 30.34791 -21.00113" />
    <path d="M 27.54511 19.24424 L 27.54511 19.22923" />
    <path d="M 29.56163 -24.54957 L 29.15833 -23.8168 L 30.34791 -23.39695" />
    <path d="M 27.54511 13.26971 A 5 1.20781 289.43975 0 0 26.08268 20.59804 A 5 1.20781 289.43975 0 0 27.54511 19.22923" />
    <path d="M 29.56163 -24.54957 L 29.56163 -40.16903" />
    <path d="M 29.56163 -43.43996 L 29.56163 -51.50253" />
    <path d="M 27.54511 13.26971 L 27.54511 3.07247 A 29.5 23.6231 180 0 0 2.64106 3.4861" />
    <path d="M 29.96494 -52.23529 L 29.56163 -51.50253" />
    <path d="M 28.6542 1.05735 L 27.54511 3.07247" />
    <path d="M 30.14235 -52.55764 L 29.96494 -52.23529" />
    <path d="M 28.6542 1.05735 L 28.6542 -49.8538 A 32.25 25.82525 180 0 0 -16.60237 -26.22199 A 32.25 25.82525 180 0 0 -13.54052 -15.23886" />
    <path d="M 30.26741 -52.78487 L 30.14235 -52.55764" />
    <path d="M 28.75502 -50.03699 L 28.6542 -49.8538" />
    <path d="M 30.88309 -53.90355 L 30.26741 -52.78487" />
    <path d="M 28.75502 -50.03699 L 28.95667 -51.60128 L 28.95667 -55.19501 A 33 26.42584 180 0 0 18.61909 -57.33212 L 19.67882 -59.25755 L 18.84855 -59.05104 L 18.01652 -58.83106 L 17.18318 -58.59772 L 16.34898 -58.35114 L 15.51441 -58.09146 L 14.6799 -57.81884 L 13.84593 -57.53341 L 13.01295 -57.23534 L 12.18144 -56.92478 L 11.35183 -56.60192 L 10.52461 -56.26693 L 9.70021 -55.92 L 8.8791 -55.56131 L 8.06173 -55.19107" />
    <path d="M 31.14344 -54.4106 A 4 0.96624 109.43975 0 1 30.88309 -53.90355" />
    <path d="M 32.48559 -59.21092 A 4 0.96624 109.43975 0 1 31.14344 -54.4106" />
    <path d="M 29.96494 -57.02693 L 28.95667 -55.19501" />
    <path d="M 31.14344 -59.13411 A 4 0.96624 109.43975 0 1 32.07994 -60.06252 A 4 0.96624 109.43975 0 1 32.48559 -59.21092" />
    <path d="M 29.96494 -57.02693 L 30.14235 -57.34928 L 30.26741 -57.57651 L 30.88309 -58.69508 A 4 0.96624 109.43975 0 1 31.14344 -59.13411 L 18.07671 -59.25371 C 23.41 -59.2 23.45 -59.2 23.47834 -59.20456 C 23.51 -59.2 23.54 -59.2 23.57756 -59.20457 C 23.61 -59.2 23.64 -59.2 23.67791 -59.20517 C 23.71 -59.21 23.75 -59.21 23.77934 -59.20635 C 23.81 -59.21 23.85 -59.21 23.88179 -59.2081 C 23.92 -59.21 23.95 -59.21 23.98522 -59.21038 C 24.02 -59.21 24.05 -59.21 24.08955 -59.2132 C 24.12 -59.21 24.16 -59.22 24.19475 -59.21652 C 24.23 -59.22 24.27 -59.22 24.30076 -59.22034 C 24.34 -59.22 24.37 -59.22 24.40754 -59.22464 C 24.44 -59.23 24.48 -59.23 24.51503 -59.22941 C 24.55 -59.23 24.59 -59.23 24.6232 -59.23462 C 24.66 -59.24 24.7 -59.24 24.73201 -59.24027 C 24.77 -59.24 24.8 -59.24 24.84142 -59.24634 C 24.88 -59.25 24.91 -59.25 24.95138 -59.25282 C 24.99 -59.26 25.02 -59.26 25.06187 -59.25969 C 25.1 -59.26 25.14 -59.26 25.17284 -59.26694 C 25.21 -59.27 25.25 -59.27 25.28428 -59.27455 C 25.32 -59.28 25.36 -59.28 25.39615 -59.28252 C 25.43 -59.29 25.47 -59.29 25.50842 -59.29083 C 25.55 -59.29 25.58 -59.3 25.62107 -59.29947 C 25.66 -59.3 25.7 -59.31 25.73407 -59.30843 C 25.77 -59.31 25.81 -59.31 25.84741 -59.31769 C 25.89 -59.32 25.92 -59.32 25.96107 -59.32725 C 26 -59.33 26.04 -59.33 26.07502 -59.3371 C 26.11 -59.34 26.15 -59.34 26.18926 -59.34721 C 26.23 -59.35 26.27 -59.35 26.30377 -59.35759 C 26.34 -59.36 26.38 -59.36 26.41853 -59.36822 C 26.57 -59.38 26.73 -59.4 26.88007 -59.4131 C 28.58 -59.59 30.33 -59.82 32.07994 -60.06252" />
    <path d="M 30.56989 -56.77844 A 1.75 0.42273 109.43975 0 1 31.15232 -57.3805 A 1.75 0.42273 109.43975 0 1 29.98747 -54.08003 A 1.75 0.42273 109.43975 0 1 30.56989 -56.77844 Z" />
    <path d="M 28.75502 -42.84953 L 28.75502 -40.45371 L 29.94461 -40.03387 L 30.34791 -40.76663 L 30.34791 -43.16245 L 29.94461 -42.42968 L 29.94461 -40.03387" />
    <path d="M 29.15833 -43.5823 L 28.75502 -42.84953 L 29.94461 -42.42968" />
    <path d="M 28.75502 -2.12061 L 28.75502 0.2752 L 29.94461 0.69505 L 30.34791 -0.03772 L 30.34791 -2.43354 L 29.94461 -1.70077 L 29.94461 0.69505" />
    <path d="M 29.15833 -2.85338 L 28.75502 -2.12061 L 29.94461 -1.70077" />
    <path d="M 27.74676 14.83491 A 1.75 0.42273 109.43975 0 1 28.32919 14.23285 A 1.75 0.42273 109.43975 0 1 27.16433 17.53332 A 1.75 0.42273 109.43975 0 1 27.74676 14.83491 Z" />
    <path d="M 2.54023 65.87384 L 1.73362 67.33937" />
    <path d="M 2.13692 27.67455 L 1.73362 28.40732" />
    <path d="M 2.13692 25.27873 L 2.13692 27.67455 L 0.94734 27.2547 L 0.55392 27.96952" />
    <path d="M 1.73362 26.0115 L 2.13692 25.27873" />
    <path d="M 2.54023 64.67593 L 2.54023 65.87384" />
    <path d="M 1.73362 26.0115 L 1.73362 -0.94146 L 1.33032 -0.20869 L 1.1529 0.11366 L 1.02784 0.34089 L 0.41217 1.45946 A 4 0.96624 109.43975 0 1 0.15181 1.89849 A 4 0.96624 109.43975 0 1 -1.03425 2.71982 A 4 0.96624 109.43975 0 1 -1.19034 1.9753 A 4 0.96624 109.43975 0 1 0.15181 -2.82502 L -8.74304 -10.52457 C -7.55 -9.49 -7.56 -9.49 -7.5646 -9.48904 C -7.57 -9.49 -7.58 -9.49 -7.58848 -9.49417 C -7.6 -9.5 -7.6 -9.5 -7.61188 -9.49878 C -7.62 -9.5 -7.63 -9.5 -7.6348 -9.50289 C -7.64 -9.5 -7.65 -9.51 -7.65722 -9.50647 C -7.66 -9.51 -7.67 -9.51 -7.67915 -9.50955 C -7.69 -9.51 -7.69 -9.51 -7.70058 -9.51211 C -7.71 -9.51 -7.71 -9.51 -7.72152 -9.51417 C -7.73 -9.51 -7.74 -9.52 -7.74195 -9.51572 C -7.75 -9.52 -7.76 -9.52 -7.76189 -9.51677 C -7.78 -9.52 -7.79 -9.52 -7.80028 -9.5174 C -7.81 -9.52 -7.82 -9.52 -7.83673 -9.51612 C -7.85 -9.52 -7.86 -9.51 -7.87127 -9.51299 C -7.88 -9.51 -7.89 -9.51 -7.90397 -9.50809 C -7.91 -9.51 -7.92 -9.5 -7.93488 -9.50151 C -7.94 -9.5 -7.95 -9.5 -7.96408 -9.49333 C -7.97 -9.49 -7.98 -9.49 -7.99163 -9.48364 C -8 -9.48 -8.01 -9.48 -8.01762 -9.47255 C -8.03 -9.47 -8.03 -9.46 -8.04213 -9.46013 C -8.05 -9.46 -8.06 -9.45 -8.06524 -9.44649 C -8.07 -9.44 -8.08 -9.44 -8.08702 -9.4317 C -8.09 -9.43 -8.1 -9.42 -8.1089 -9.41475 C -8.12 -9.41 -8.12 -9.4 -8.12946 -9.39667 C -8.14 -9.39 -8.14 -9.38 -8.14881 -9.37754 C -8.16 -9.37 -8.16 -9.36 -8.16701 -9.35745 C -8.17 -9.35 -8.18 -9.34 -8.18414 -9.33646 C -8.19 -9.33 -8.2 -9.32 -8.20029 -9.31464 C -8.21 -9.3 -8.22 -9.28 -8.22987 -9.26875 C -8.27 -9.21 -8.3 -9.14 -8.31972 -9.06199 C -8.44 -8.68 -8.46 -8.22 -8.46016 -7.75031" />
    <path d="M 2.54023 64.67593 L 3.75014 62.47762 L 3.75014 62.46261 A 5 1.20781 289.43975 0 0 5.21257 55.13427 A 5 1.20781 289.43975 0 0 3.75014 56.50308 L 3.75014 46.30584 L 2.64106 48.32096 L 2.64106 47.722 A 32.25 25.82525 360 0 1 2.13692 47.53993" />
    <path d="M 2.64106 47.722 L 2.13692 48.63796 L 2.13692 46.24215" />
    <path d="M 0.15181 -2.82502 A 4 0.96624 109.43975 0 1 0.41217 -3.33207 L -8.47552 -11.01063 C -4.7 -7.72 -4.8 -7.78 -4.90529 -7.8344 C -5.01 -7.89 -5.11 -7.95 -5.20674 -8.00707 C -5.26 -8.04 -5.32 -8.07 -5.37288 -8.1038 C -5.43 -8.14 -5.48 -8.17 -5.53852 -8.2014 C -5.59 -8.23 -5.65 -8.27 -5.70365 -8.29987 C -5.76 -8.33 -5.81 -8.37 -5.86825 -8.39924 C -5.93 -8.44 -6 -8.48 -6.05841 -8.51557 C -6.12 -8.55 -6.18 -8.59 -6.24783 -8.63313 C -6.31 -8.67 -6.37 -8.71 -6.43647 -8.75193 C -6.5 -8.79 -6.56 -8.83 -6.62434 -8.87197 C -6.7 -8.92 -6.78 -8.97 -6.85526 -9.02197 C -6.93 -9.07 -7.01 -9.12 -7.08492 -9.17388 C -7.16 -9.22 -7.24 -9.28 -7.31326 -9.3277 C -7.39 -9.38 -7.46 -9.43 -7.54025 -9.48341" />
    <path d="M 2.64106 45.32618 L 2.13692 46.24215" />
    <path d="M 0.41217 -3.33207 L 1.02784 -4.45075 L -7.85984 -12.12926 A 35.5 28.42779 360 0 1 -7.66565 -9.57505 L -6.60592 -11.50047 A 33 26.42584 180 0 0 2.33858 -6.83225 L 1.33032 -5.00033 A 35.5 28.42779 360 0 1 0.37281 -5.35194" />
    <path d="M 2.64106 45.32618 L 2.64106 6.99309 A 32.25 25.82525 360 0 1 2.13692 6.81101" />
    <path d="M 1.02784 -4.45075 L 1.1529 -4.67798 L -7.73478 -12.35649" />
    <path d="M 2.64106 6.99309 L 2.13692 7.90905 L 2.13692 5.51323" />
    <path d="M 1.1529 -4.67798 L 1.33032 -5.00033 C 1.29 -5.01 1.25 -5.03 1.20895 -5.0404 C 1.17 -5.05 1.13 -5.07 1.088 -5.08158 C 1.05 -5.1 1.01 -5.11 0.96749 -5.12388 C 0.93 -5.14 0.89 -5.15 0.84746 -5.16729 C 0.81 -5.18 0.77 -5.2 0.72794 -5.21181 C 0.69 -5.23 0.65 -5.24 0.60897 -5.25743 C 0.57 -5.27 0.53 -5.29 0.49058 -5.30414 C 0.45 -5.32 0.41 -5.34 0.37281 -5.35194" />
    <path d="M 2.64106 4.59727 L 2.13692 5.51323" />
    <path d="M 2.33858 -3.23852 L 2.33858 -6.83225" />
    <path d="M 2.64106 4.59727 L 2.64106 -2.59019 L 2.54023 -2.407 L 2.33858 -3.23852" />
    <path d="M 0.72536 -2.55352 A 1.75 0.42273 109.43975 0 1 1.30779 -3.15559 A 1.75 0.42273 109.43975 0 1 0.14293 0.14488 A 1.75 0.42273 109.43975 0 1 0.72536 -2.55352 Z" />
    <path d="M 3.54849 58.80106 A 1.75 0.42273 109.43975 0 1 4.13092 58.19899 A 1.75 0.42273 109.43975 0 1 2.96606 61.49947 A 1.75 0.42273 109.43975 0 1 3.54849 58.80106 Z" />
    <path d="M 1.73362 26.0115 A 34.5 27.62701 360 0 1 0.55392 25.5737 L 0.55392 27.96952" />
    <path d="M -15.07761 50.43131 L -14.98921 50.69517 L -14.89985 50.95776 L -14.80953 51.21906 L -14.71826 51.47907 L -14.62603 51.73779 L -14.53285 51.9952 L -14.43873 52.25129 L -14.34366 52.50606 L -14.24765 52.7595 L -14.1507 53.0116 L -14.05281 53.26236 L -13.954 53.51176 L -13.85425 53.7598 L -13.75358 54.00647 L -9.23958 55.59962" />
    <path d="M -9.72382 58.27282 A 34.5 27.62701 360 0 1 -13.75358 54.00647" />
    <path d="M -9.72382 58.27282 L -9.48687 58.33415 L -9.24737 58.3969 L -9.00533 58.46108 L -8.7608 58.52666 L -8.51378 58.59365 L -8.2643 58.66205 L -8.0124 58.73183 L -7.75809 58.803 L -7.5014 58.87554 L -7.24237 58.94946 L -6.981 59.02474 L -6.71734 59.10137 L -6.4514 59.17935 L -6.18322 59.25867 L -6.4514 58.98337 L -6.71734 58.70242 L -6.981 58.41585 L -7.24237 58.12368 L -7.5014 57.82595 L -7.75809 57.52269 L -8.0124 57.21393 L -8.2643 56.89969 L -8.51378 56.58001 L -8.7608 56.25493 L -9.00533 55.92448 L -9.24737 55.58868 L -9.48687 55.24758 L -9.72382 54.9012 A 34.5 27.62701 360 0 1 -13.75358 50.63485 L -13.85425 50.61724 L -13.954 50.6001 L -14.05281 50.58343 L -14.1507 50.56723 L -14.24765 50.5515 L -14.34366 50.53625 L -14.43873 50.52147 L -14.53285 50.50717 L -14.62603 50.49334 L -14.71826 50.47998 L -14.80953 50.4671 L -14.89985 50.45469 L -14.98921 50.44276 L -15.07761 50.43131" />
    <path d="M 27.54511 19.24424 A 29.5 23.6231 180 0 0 27.53767 19.24162" />
    <path d="M 16.59658 17.25006 A 29.5 23.6231 180 0 0 2.64106 19.65788" />
    <path d="M 2.38553 45.79046 A 29.5 23.6231 180 0 0 3.75014 46.30584" />
    <path d="M 12.16629 13.23194 C 12.2 13.21 12.23 13.18 12.26089 13.1575 C 12.29 13.13 12.33 13.11 12.35931 13.08486 C 12.39 13.06 12.43 13.04 12.46132 13.01405 C 12.5 12.99 12.53 12.97 12.56669 12.94509 C 12.6 12.92 12.64 12.9 12.67521 12.878 C 12.71 12.86 12.75 12.83 12.78667 12.8128 C 12.82 12.79 12.86 12.77 12.90087 12.7495 C 12.94 12.73 12.98 12.71 13.01761 12.68812 C 13.06 12.67 13.1 12.65 13.13672 12.62865 C 13.18 12.61 13.22 12.59 13.25801 12.57111 C 13.3 12.55 13.34 12.53 13.38133 12.51549 C 13.42 12.5 13.46 12.48 13.50649 12.46178 C 13.55 12.44 13.59 12.43 13.63334 12.40998 C 13.68 12.39 13.72 12.38 13.76174 12.36007 C 13.8 12.34 13.85 12.33 13.89153 12.31205 C 13.94 12.3 13.98 12.28 14.02257 12.2659 C 14.06 12.25 14.1 12.24 14.14505 12.22478 C 14.19 12.21 14.23 12.2 14.26851 12.18519 C 14.31 12.17 14.35 12.16 14.39287 12.14712 C 14.43 12.13 14.48 12.12 14.51806 12.11054 C 14.56 12.1 14.6 12.09 14.64401 12.07545 C 14.69 12.06 14.73 12.05 14.77067 12.04181 C 14.81 12.03 14.86 12.02 14.89797 12.0096 C 14.94 12 14.98 11.99 15.02587 11.97881 C 15.07 11.97 15.11 11.96 15.1543 11.9494 C 15.2 11.94 15.24 11.93 15.28323 11.92136 C 15.33 11.91 15.37 11.9 15.41262 11.89467 C 15.46 11.89 15.5 11.88 15.54241 11.8693 C 15.72 11.84 15.89 11.81 16.06508 11.7806 C 20.01 11.24 23.95 12.03 27.54511 13.26971" />
    <path d="M 13.11611 16.02168 C 13.07 16.01 13.03 15.99 12.98523 15.97411 C 12.94 15.96 12.9 15.94 12.85727 15.92468 C 12.82 15.91 12.77 15.89 12.73249 15.87332 C 12.69 15.86 12.65 15.84 12.61116 15.81993 C 12.57 15.8 12.53 15.78 12.49358 15.76443 C 12.46 15.75 12.42 15.73 12.38003 15.70672 C 12.34 15.69 12.31 15.67 12.27083 15.64672 C 12.24 15.63 12.2 15.61 12.16629 15.58433" />
    <path d="M 29.56163 -24.54957 L 30.75122 -24.12972" />
    <path d="M 12.16629 13.23194 A 5 1.20781 289.43975 0 0 12.16629 15.58433" />
    <path d="M -7.51281 -4.67745 A 35.5 28.42779 360 0 1 -19.85237 -26.22199 L -19.85237 -27.4199 A 35.5 28.42779 360 0 1 8.06173 -55.19107" />
    <path d="M 2.64106 1.05735 A 32.25 25.82525 360 0 1 28.6542 1.05735" />
    <path d="M 2.4821 -2.6467 A 32.25 25.82525 180 0 0 2.64106 -2.59019" />
    <path d="M 28.75502 -50.03699 A 32.5 26.02545 180 0 0 -15.21078 -18.05524" />
    <path d="M 6.78722 -52.87539 A 33 26.42584 180 0 0 -15.45446 -18.58728 A 33 26.42584 180 0 0 -13.79333 -15.48233 L -13.39807 -15.10732 L -12.9834 -14.74538 L -12.54958 -14.39676 L -12.09691 -14.06168 L -11.62569 -13.74037 L -11.13623 -13.43304 L -10.62887 -13.1399 L -10.10395 -12.86115 L -9.5618 -12.59697 L -9.00281 -12.34754 L -8.42733 -12.11302 L -7.83576 -11.89357 L -7.22849 -11.68935 L -6.60592 -11.50047" />
    <path d="M 28.95667 -51.60128 A 33 26.42584 180 0 0 6.78722 -52.87539 L 8.06173 -55.19107" />
    <path d="M 18.61909 -57.33212 L 17.76837 -57.10646 L 16.91624 -56.8658 L 16.06326 -56.61028 L 15.21 -56.34009 L 14.35703 -56.05541 L 13.50493 -55.75641 L 12.65426 -55.44332 L 11.80558 -55.11632 L 10.95948 -54.77565 L 10.11651 -54.42152 L 9.27724 -54.05419 L 8.44223 -53.67388 L 7.61204 -53.28086 L 6.78722 -52.87539" />
    <path d="M 19.67882 -59.25755 A 35.5 28.42779 360 0 1 28.25722 -57.58766" />
    <path d="M 30.26741 -57.57651 L 17.19351 -57.64902" />
    <path d="M 30.14235 -57.34928 L 17.06845 -57.42179 A 35.5 28.42779 360 0 1 29.96494 -57.02693" />
    <path d="M 23.38033 -59.20517 L 18.07671 -59.25371" />
    <path d="M 30.88309 -58.69508 L 17.80919 -58.76765 C 23.63 -58.71 23.75 -58.69 23.87235 -58.66792 C 23.99 -58.64 24.12 -58.62 24.23615 -58.59691 C 24.36 -58.57 24.48 -58.55 24.59803 -58.52304 C 24.72 -58.5 24.84 -58.47 24.95793 -58.44633 C 25.06 -58.42 25.17 -58.4 25.2683 -58.37758 C 25.37 -58.35 25.47 -58.33 25.57709 -58.30675 C 25.68 -58.28 25.78 -58.26 25.88429 -58.23388 C 25.99 -58.21 26.09 -58.18 26.18984 -58.15899 C 26.37 -58.11 26.56 -58.07 26.73683 -58.01888 C 26.92 -57.97 27.1 -57.92 27.27822 -57.87245 C 27.44 -57.83 27.61 -57.78 27.7702 -57.73259 C 27.93 -57.69 28.1 -57.64 28.25722 -57.58766" />
    <path d="M 29.15833 -43.5823 L 30.34791 -43.16245" />
    <path d="M 29.15833 -2.85338 L 30.34791 -2.43354" />
    <path d="M 0.94734 25.72453 L 0.94734 27.2547" />
    <path d="M -6.00921 -3.38742 L -8.74304 -5.73293 C -7.55 -4.71 -7.56 -4.72 -7.56964 -4.73488 C -7.58 -4.75 -7.59 -4.76 -7.59832 -4.76864 C -7.61 -4.78 -7.62 -4.79 -7.6263 -4.80225 C -7.64 -4.81 -7.64 -4.82 -7.65355 -4.83568 C -7.66 -4.85 -7.67 -4.86 -7.68008 -4.86893 C -7.69 -4.88 -7.7 -4.89 -7.70588 -4.90198 C -7.71 -4.91 -7.72 -4.92 -7.73095 -4.93481 C -7.74 -4.95 -7.75 -4.96 -7.75528 -4.96742 C -7.76 -4.98 -7.77 -4.99 -7.7789 -4.99979 C -7.79 -5.01 -7.79 -5.02 -7.80179 -5.03193 C -7.81 -5.04 -7.82 -5.05 -7.82398 -5.06381 C -7.83 -5.07 -7.84 -5.08 -7.84546 -5.09543 C -7.85 -5.11 -7.86 -5.12 -7.86626 -5.1268 C -7.87 -5.14 -7.88 -5.15 -7.88637 -5.1579 C -7.9 -5.18 -7.91 -5.2 -7.92464 -5.21931 C -7.94 -5.24 -7.95 -5.26 -7.96038 -5.27964 C -7.97 -5.3 -7.98 -5.32 -7.99372 -5.3389 C -8 -5.36 -8.01 -5.38 -8.0248 -5.39709 C -8.03 -5.42 -8.04 -5.44 -8.05375 -5.45424 C -8.06 -5.47 -8.07 -5.49 -8.08073 -5.51036 C -8.09 -5.53 -8.1 -5.55 -8.10585 -5.56549 C -8.11 -5.58 -8.12 -5.6 -8.12926 -5.61967 C -8.14 -5.64 -8.14 -5.66 -8.15109 -5.67293 C -8.16 -5.69 -8.16 -5.71 -8.16993 -5.72134 C -8.18 -5.74 -8.18 -5.75 -8.18763 -5.76909 C -8.19 -5.78 -8.2 -5.8 -8.20426 -5.81621 C -8.21 -5.83 -8.21 -5.85 -8.21989 -5.86274 C -8.24 -5.92 -8.26 -5.98 -8.27385 -6.04365 C -8.31 -6.16 -8.33 -6.28 -8.35075 -6.38583 C -8.44 -6.88 -8.46 -7.32 -8.46016 -7.75031" />
    <path d="M -8.29876 -7.53439 C -8.28 -7.49 -8.27 -7.45 -8.24888 -7.40981 C -8.23 -7.37 -8.22 -7.33 -8.19854 -7.28504 C -8.18 -7.24 -8.16 -7.2 -8.14766 -7.1601 C -8.13 -7.12 -8.11 -7.08 -8.09616 -7.035 C -8.08 -6.99 -8.06 -6.95 -8.04396 -6.90975 C -8.03 -6.87 -8.01 -6.83 -7.99097 -6.78438 C -7.97 -6.74 -7.96 -6.7 -7.93712 -6.6589 C -7.92 -6.62 -7.9 -6.58 -7.88234 -6.53333 C -7.86 -6.49 -7.85 -6.45 -7.82655 -6.40769 C -7.81 -6.37 -7.79 -6.32 -7.76967 -6.28202 C -7.75 -6.24 -7.73 -6.2 -7.71165 -6.15634 C -7.69 -6.11 -7.67 -6.07 -7.65241 -6.03068 C -7.63 -5.99 -7.61 -5.95 -7.59189 -5.90508 C -7.57 -5.86 -7.55 -5.82 -7.53003 -5.77956 C -7.51 -5.74 -7.49 -5.7 -7.46677 -5.65415 C -7.45 -5.61 -7.42 -5.57 -7.40204 -5.52891 C -7.38 -5.49 -7.36 -5.45 -7.33968 -5.41109 C -7.32 -5.37 -7.3 -5.33 -7.27593 -5.29349 C -7.25 -5.25 -7.23 -5.22 -7.21075 -5.17613 C -7.19 -5.14 -7.17 -5.1 -7.14411 -5.05906 C -7.12 -5.02 -7.1 -4.98 -7.07596 -4.94232 C -7.05 -4.9 -7.03 -4.86 -7.00628 -4.82595 C -6.98 -4.79 -6.96 -4.75 -6.93503 -4.71 C -6.91 -4.67 -6.89 -4.63 -6.86219 -4.5945 C -6.84 -4.56 -6.81 -4.52 -6.78772 -4.47951 C -6.76 -4.44 -6.74 -4.4 -6.71161 -4.36506 C -6.69 -4.33 -6.66 -4.29 -6.63382 -4.25121 C -6.61 -4.21 -6.58 -4.18 -6.55435 -4.13801 C -6.5 -4.06 -6.45 -3.99 -6.39029 -3.91373 C -6.33 -3.84 -6.28 -3.77 -6.21932 -3.69262" />
    <path d="M -3.02627 0.00267 C -3.21 -0.21 -3.39 -0.43 -3.56959 -0.6433 C -3.66 -0.75 -3.75 -0.86 -3.84276 -0.96547 C -3.93 -1.07 -4.03 -1.18 -4.11696 -1.28707 C -4.21 -1.39 -4.3 -1.5 -4.3922 -1.60809 C -4.48 -1.71 -4.58 -1.82 -4.66852 -1.92852 C -4.76 -2.04 -4.85 -2.14 -4.94591 -2.24835 C -5.04 -2.35 -5.13 -2.46 -5.22441 -2.56756 C -5.31 -2.66 -5.39 -2.76 -5.47182 -2.84957 C -5.55 -2.94 -5.64 -3.04 -5.72011 -3.13109 C -5.8 -3.22 -5.89 -3.32 -5.96927 -3.41211 C -6.05 -3.51 -6.14 -3.6 -6.21932 -3.69262" />
    <path d="M -2.96907 0.18035 C -2.97 0.18 -2.97 0.19 -2.97263 0.18889 C -2.97 0.19 -2.97 0.2 -2.97237 0.19879 C -2.97 0.2 -2.97 0.21 -2.96813 0.2101 C -2.97 0.21 -2.96 0.22 -2.95972 0.22287 C -2.92 0.27 -2.88 0.32 -2.84091 0.37513 C -2.8 0.43 -2.76 0.48 -2.72183 0.52806 C -2.68 0.58 -2.64 0.63 -2.60248 0.68162 C -2.56 0.73 -2.52 0.78 -2.48289 0.83576 C -2.44 0.89 -2.4 0.94 -2.36308 0.99046 C -2.32 1.04 -2.28 1.09 -2.24306 1.14566 C -2.2 1.2 -2.16 1.25 -2.12284 1.30135 C -2.08 1.35 -2.04 1.41 -2.00245 1.45749 C -1.96 1.51 -1.92 1.56 -1.8819 1.61405 C -1.84 1.67 -1.8 1.72 -1.76119 1.771 C -1.72 1.82 -1.68 1.88 -1.64034 1.92832 C -1.6 1.98 -1.56 2.03 -1.51936 2.08599 C -1.48 2.14 -1.44 2.19 -1.39825 2.24399 C -1.36 2.3 -1.32 2.35 -1.27702 2.40231 C -1.24 2.46 -1.2 2.51 -1.15569 2.56092 C -1.12 2.61 -1.07 2.67 -1.03425 2.71982" />
    <path d="M -3.07851 -0.55071 C -3.08 -0.51 -3.08 -0.47 -3.07688 -0.43828 C -3.08 -0.4 -3.07 -0.37 -3.072 -0.33197 C -3.07 -0.3 -3.07 -0.26 -3.06386 -0.23202 C -3.06 -0.2 -3.06 -0.17 -3.0525 -0.1386 C -3.05 -0.11 -3.04 -0.08 -3.03791 -0.05191 C -3.03 -0.02 -3.03 0 -3.02014 0.02788 C -3.01 0.05 -3.01 0.08 -2.9992 0.1006 C -2.99 0.12 -2.98 0.15 -2.97514 0.1661 C -2.97 0.17 -2.97 0.18 -2.96907 0.18035" />
    <path d="M -2.96907 -1.67949 C -2.97 -1.67 -2.97 -1.66 -2.97514 -1.64318 C -2.98 -1.59 -2.99 -1.54 -2.9992 -1.49024 C -3.01 -1.44 -3.01 -1.39 -3.02014 -1.34144 C -3.03 -1.29 -3.03 -1.24 -3.03791 -1.19705 C -3.04 -1.15 -3.05 -1.1 -3.0525 -1.05737 C -3.06 -1.01 -3.06 -0.97 -3.06386 -0.92264 C -3.07 -0.88 -3.07 -0.84 -3.072 -0.79312 C -3.07 -0.75 -3.08 -0.71 -3.07688 -0.66907 C -3.08 -0.63 -3.08 -0.59 -3.07851 -0.55071" />
    <path d="M -2.70032 -2.97815 C -2.71 -2.96 -2.73 -2.93 -2.74046 -2.91007 C -2.75 -2.89 -2.77 -2.86 -2.777 -2.83951 C -2.79 -2.82 -2.8 -2.79 -2.81005 -2.76667 C -2.82 -2.74 -2.83 -2.72 -2.83971 -2.69171 C -2.85 -2.67 -2.86 -2.64 -2.86608 -2.6148 C -2.87 -2.59 -2.88 -2.56 -2.88928 -2.5361 C -2.9 -2.51 -2.9 -2.48 -2.90941 -2.45577 C -2.92 -2.43 -2.92 -2.4 -2.92657 -2.37394 C -2.93 -2.35 -2.94 -2.32 -2.94088 -2.29075 C -2.95 -2.26 -2.95 -2.23 -2.95243 -2.20633 C -2.96 -2.18 -2.96 -2.15 -2.96133 -2.12078 C -2.96 -2.09 -2.97 -2.06 -2.96765 -2.03422 C -2.97 -2.01 -2.97 -1.98 -2.97151 -1.94673 C -2.97 -1.92 -2.97 -1.89 -2.97297 -1.8584 C -2.97 -1.83 -2.97 -1.8 -2.97213 -1.7693 C -2.97 -1.74 -2.97 -1.71 -2.96907 -1.67949" />
    <path d="M -2.70032 -2.97815 C -2.84 -3.15 -2.99 -3.32 -3.13099 -3.49398 C -3.27 -3.67 -3.42 -3.84 -3.56414 -4.00847 C -3.71 -4.18 -3.85 -4.35 -3.99985 -4.52155 C -4.15 -4.69 -4.29 -4.86 -4.43821 -5.03318 C -4.58 -5.2 -4.73 -5.37 -4.87928 -5.54331 C -5.03 -5.71 -5.17 -5.88 -5.32313 -6.05188 C -5.47 -6.22 -5.62 -6.39 -5.7698 -6.55887 C -5.92 -6.73 -6.07 -6.9 -6.21932 -7.06424 C -6.25 -7.07 -6.28 -7.08 -6.30381 -7.08745 C -6.33 -7.1 -6.36 -7.1 -6.38663 -7.10995 C -6.41 -7.12 -6.44 -7.12 -6.46781 -7.13175 C -6.49 -7.14 -6.52 -7.15 -6.54734 -7.15287 C -6.57 -7.16 -6.6 -7.17 -6.62524 -7.1733 C -6.65 -7.18 -6.68 -7.19 -6.70152 -7.19307 C -6.73 -7.2 -6.75 -7.21 -6.7762 -7.21217 C -6.8 -7.22 -6.83 -7.22 -6.84931 -7.23062 C -6.87 -7.24 -6.9 -7.24 -6.92086 -7.24844 C -6.94 -7.25 -6.97 -7.26 -6.99087 -7.26563 C -7.01 -7.27 -7.04 -7.28 -7.05938 -7.2822 C -7.08 -7.29 -7.1 -7.29 -7.12642 -7.29819 C -7.15 -7.3 -7.17 -7.31 -7.192 -7.31359 C -7.21 -7.32 -7.24 -7.32 -7.25618 -7.32842 C -7.28 -7.33 -7.3 -7.34 -7.31897 -7.34271 C -7.34 -7.35 -7.36 -7.35 -7.38043 -7.35647 C -7.42 -7.36 -7.45 -7.37 -7.48569 -7.37949 C -7.52 -7.39 -7.55 -7.39 -7.58714 -7.40102 C -7.62 -7.41 -7.65 -7.41 -7.68503 -7.42117 C -7.72 -7.43 -7.75 -7.43 -7.77963 -7.44006 C -7.81 -7.45 -7.84 -7.45 -7.87122 -7.45779 C -7.9 -7.46 -7.93 -7.47 -7.96011 -7.4745 C -7.99 -7.48 -8.02 -7.49 -8.04662 -7.49032 C -8.08 -7.5 -8.1 -7.5 -8.13106 -7.50538 C -8.16 -7.51 -8.19 -7.52 -8.21561 -7.52014 C -8.24 -7.52 -8.27 -7.53 -8.29876 -7.53439 L -5.87679 -6.67959" />
    <path d="M -0.3387 -5.63137 C -0.49 -5.69 -0.65 -5.76 -0.80282 -5.82225 C -0.96 -5.89 -1.11 -5.95 -1.26562 -6.01954 C -1.43 -6.09 -1.6 -6.17 -1.76601 -6.24086 C -1.93 -6.32 -2.1 -6.39 -2.26436 -6.46977 C -2.45 -6.56 -2.63 -6.64 -2.81419 -6.73243 C -3 -6.82 -3.18 -6.91 -3.36081 -7.00441 C -3.47 -7.06 -3.57 -7.11 -3.67316 -7.16483 C -3.78 -7.22 -3.88 -7.27 -3.98424 -7.3283 C -4.09 -7.38 -4.19 -7.44 -4.294 -7.49482 C -4.4 -7.55 -4.5 -7.61 -4.60234 -7.66438" />
    <path d="M -13.46966 50.99881 L -15.07761 50.43131" />
    <path d="M -15.06785 -13.16665 A 35.5 28.42779 360 0 1 -19.85237 -27.4199" />
    <path d="M -15.06785 -13.16665 L -14.64093 -12.82747 L -14.19727 -12.50037 L -13.73712 -12.1855 L -13.26072 -11.88306 L -12.76834 -11.59321 L -12.26026 -11.3161 L -11.73676 -11.0519 L -11.19812 -10.80074 L -10.64464 -10.56277 L -10.07662 -10.33812 L -9.49439 -10.1269 L -8.89826 -9.92925 L -8.28857 -9.74526 L -7.66565 -9.57505" />
    <path d="M -15.06785 -13.16665 L -13.79333 -15.48233" />
    <path d="M -2.89386 -2.51895 L -6.21932 -3.69262" />
    <path d="M -16.86819 51.29294 L -17.33943 50.22886" />
    <path d="M -18.85237 -19.52216 L -18.85237 40.86093" />
    <path d="M 13.11611 16.02168 L 26.08268 20.59804" />
    <path d="M 3.75014 54.61813 L 5.21257 55.13427" />
    <path d="M -6.00921 -3.38742 C -6.01 -3.38 -6 -3.38 -5.99943 -3.37897 C -6 -3.38 -5.99 -3.37 -5.98895 -3.36981 C -5.99 -3.37 -5.98 -3.36 -5.97777 -3.35991 C -5.97 -3.36 -5.97 -3.35 -5.96589 -3.34928 C -5.96 -3.35 -5.96 -3.34 -5.95332 -3.3379 C -5.95 -3.33 -5.94 -3.33 -5.94007 -3.32577 C -5.94 -3.32 -5.93 -3.32 -5.92614 -3.31288 C -5.92 -3.31 -5.92 -3.3 -5.91153 -3.29922 C -5.9 -3.29 -5.89 -3.28 -5.88273 -3.27191 C -5.87 -3.26 -5.86 -3.25 -5.85167 -3.2419 C -5.84 -3.23 -5.83 -3.22 -5.81841 -3.20924 C -5.81 -3.2 -5.8 -3.19 -5.78304 -3.17394 C -5.77 -3.16 -5.76 -3.15 -5.74564 -3.13605 C -5.73 -3.12 -5.72 -3.11 -5.70629 -3.09562 C -5.69 -3.08 -5.68 -3.07 -5.66506 -3.05271 C -5.65 -3.04 -5.64 -3.02 -5.62206 -3.00737 C -5.61 -2.99 -5.59 -2.98 -5.57735 -2.95969 C -5.56 -2.94 -5.55 -2.93 -5.53104 -2.90973 C -5.52 -2.89 -5.5 -2.88 -5.4832 -2.85759 C -5.47 -2.84 -5.45 -2.82 -5.43393 -2.80335 C -5.42 -2.78 -5.4 -2.77 -5.38333 -2.74712 C -5.37 -2.73 -5.35 -2.71 -5.33147 -2.689 C -5.31 -2.67 -5.3 -2.65 -5.27847 -2.62911 C -5.26 -2.61 -5.24 -2.59 -5.22441 -2.56756" />
</svg>